<svg width="165" height="40" xmlns="http://www.w3.org/2000/svg">
 <g>
  <title>Layer 1</title>
  <path d="m0.00509,20.00788l-0.005,-8.373c-0.008,-1.28 0.532,-2.194 1.628,-2.84l13.963,-8.27c1.166,-0.696 2.256,-0.702 3.423,-0.005l14.017,8.296c1.074,0.633 1.605,1.563 1.606,2.797l0.001,16.746c0,1.23 -0.513,2.168 -1.6,2.804l-14.07,8.33c-1.12,0.666 -2.2,0.682 -3.315,0.012l-14,-8.303c-1.12,-0.66 -1.657,-1.6 -1.646,-2.894l0.007,-8.3l-0.009,0zm20.88,-0.1l-0.004,-3.84c-0.007,-0.722 -0.43,-1.186 -1.075,-1.235c-0.754,-0.057 -1.3,0.416 -1.32,1.187l-0.01,2.52c-0.01,0.544 -0.365,0.827 -0.857,0.72c-0.405,-0.1 -0.512,-0.378 -0.5,-0.753l0.004,-3.337c0.002,-0.47 -0.127,-0.87 -0.547,-1.13c-0.855,-0.526 -1.846,0.013 -1.874,1.038l-0.01,2.708c-0.007,0.496 -0.232,0.734 -0.654,0.75c-0.443,0.015 -0.717,-0.247 -0.746,-0.744l-0.007,-0.944c-0.022,-0.52 -0.286,-0.868 -0.766,-1.037a1.18,1.18 0 0 0 -1.613,1.129l-0.01,2.393c-0.01,0.435 -0.267,0.673 -0.66,0.685c-0.405,0.012 -0.66,-0.2 -0.718,-0.633c-0.017,-0.124 0,-0.253 -0.015,-0.377c-0.075,-0.622 -0.595,-1.095 -1.187,-1.088c-0.6,0.007 -1.168,0.48 -1.184,1.1l0,3.778c0.017,0.618 0.584,1.092 1.18,1.1c0.607,-0.002 1.1,-0.46 1.188,-1.087c0.018,-0.145 -0.037,-0.327 0.032,-0.433c0.138,-0.2 0.3,-0.473 0.522,-0.542c0.185,-0.06 0.503,0.06 0.657,0.208c0.138,0.133 0.18,0.413 0.183,0.63l0.013,3.715c0.013,0.905 0.945,1.463 1.745,1.06c0.455,-0.23 0.646,-0.6 0.64,-1.13l-0.005,-4.912c0.001,-0.764 0.23,-1.106 0.726,-1.1c0.475,0.006 0.68,0.325 0.682,1.06l0.003,2.204c0.015,0.765 0.5,1.257 1.2,1.264c0.72,0.008 1.215,-0.506 1.23,-1.294l0.005,-1.7c0.01,-0.515 0.266,-0.798 0.7,-0.8s0.67,0.3 0.677,0.803l0.008,1.952c0.024,0.707 0.54,1.188 1.217,1.177c0.698,-0.01 1.17,-0.504 1.177,-1.273l0.003,-3.78l-0.03,-0.012zm3.804,1.335l-0.002,-2.14c-0.01,-0.727 -0.46,-1.205 -1.142,-1.232c-0.712,-0.028 -1.243,0.386 -1.26,1.108l0.008,4.528c0.02,0.702 0.596,1.164 1.255,1.126c0.682,-0.04 1.128,-0.52 1.14,-1.252l0.001,-2.14l0,0.002zm1.4,0.595l0.001,0.565a1.13,1.13 0 0 0 1.109,1.129c0.673,0.037 1.206,-0.372 1.27,-1.03a6.89,6.89 0 0 0 -0.001,-1.316c-0.062,-0.65 -0.62,-1.1 -1.262,-1.05c-0.622,0.038 -1.08,0.5 -1.116,1.138c-0.01,0.188 -0.001,0.377 -0.001,0.565l0,-0.001z" fill="#f25c31" id="svg_1"/>
  <path d="m20.88509,19.89688l-0.003,3.778c-0.008,0.77 -0.48,1.262 -1.177,1.273c-0.677,0.01 -1.193,-0.47 -1.217,-1.177l-0.008,-1.952c-0.007,-0.514 -0.254,-0.796 -0.677,-0.803s-0.68,0.275 -0.7,0.8l-0.005,1.7c-0.014,0.788 -0.5,1.302 -1.23,1.294c-0.7,-0.008 -1.175,-0.5 -1.2,-1.264l-0.003,-2.204c-0.001,-0.736 -0.207,-1.055 -0.682,-1.06c-0.497,-0.006 -0.725,0.335 -0.726,1.1l0.005,4.912c0.005,0.52 -0.186,0.9 -0.64,1.13c-0.8,0.404 -1.732,-0.154 -1.745,-1.06l-0.013,-3.715c-0.003,-0.216 -0.045,-0.497 -0.183,-0.63c-0.155,-0.15 -0.472,-0.267 -0.657,-0.208c-0.213,0.07 -0.384,0.33 -0.522,0.542c-0.07,0.106 -0.014,0.287 -0.032,0.433c-0.078,0.628 -0.58,1.086 -1.188,1.087c-0.596,0.002 -1.164,-0.473 -1.18,-1.1l0,-3.771c0.016,-0.6 0.583,-1.084 1.184,-1.1c0.593,-0.007 1.113,0.466 1.187,1.088c0.015,0.124 -0.002,0.253 0.015,0.377c0.057,0.424 0.313,0.645 0.718,0.633c0.394,-0.012 0.65,-0.25 0.66,-0.685l0.01,-2.393a1.18,1.18 0 0 1 1.613,-1.129c0.48,0.168 0.744,0.516 0.766,1.037l0.007,0.944c0.03,0.497 0.303,0.76 0.746,0.744c0.422,-0.015 0.647,-0.253 0.654,-0.75l0.01,-2.708c0.028,-1.025 1.02,-1.564 1.874,-1.038c0.42,0.26 0.55,0.66 0.547,1.13l-0.004,3.337c-0.002,0.374 0.106,0.664 0.5,0.753c0.492,0.1 0.847,-0.175 0.857,-0.72l0.01,-2.52c0.02,-0.77 0.566,-1.244 1.32,-1.187c0.645,0.05 1.067,0.512 1.075,1.235l0.004,3.844l0.03,0.003zm3.804,1.335l-0.002,2.14c-0.01,0.732 -0.456,1.212 -1.14,1.252c-0.66,0.038 -1.237,-0.424 -1.255,-1.126l-0.008,-4.528c0.017,-0.722 0.548,-1.136 1.26,-1.108c0.682,0.027 1.133,0.505 1.142,1.232l0.003,2.14l0,-0.002zm1.4,0.595l0.002,-0.565c0.036,-0.637 0.494,-1.1 1.116,-1.138c0.644,-0.04 1.2,0.4 1.262,1.05a6.97,6.97 0 0 1 0.001,1.316c-0.064,0.658 -0.597,1.067 -1.27,1.03a1.13,1.13 0 0 1 -1.109,-1.129c-0.01,-0.188 -0.002,-0.377 -0.002,-0.565l0,0.001z" fill="#fefefe" id="svg_3"/>
  <path d="m108.64497,28.061c2.30576,1.10227 3.44979,2.88743 3.42249,5.40368c-0.03215,2.66729 -1.95068,5.06143 -4.57939,5.55954c-1.11673,0.20889 -2.27684,0.22977 -3.4193,0.26191l-4.39622,0.00964l0,-20.82257c2.43111,0.08034 4.90077,-0.36314 7.25151,0.58648c3.15257,1.27259 4.28215,5.64631 2.21259,8.34735l-0.49007,0.65558l-0.0016,-0.00161l-0.00001,0zm-5.77969,8.18988l2.8087,-0.00964c0.36475,-0.01125 0.7343,-0.09962 1.0862,-0.20406c1.25009,-0.36956 2.06474,-1.41399 2.08885,-2.65605c0.04338,-1.40756 -0.56239,-2.42949 -1.78999,-2.84726c-1.34489,-0.45955 -2.74281,-0.53507 -4.20982,-0.47561l0,6.19262l0.01606,0zm-0.01606,-8.89527c1.54252,0.05785 3.08506,0.20085 3.90452,-1.34972c0.60417,-1.14565 0.64273,-2.45198 -0.18799,-3.53979c-0.93839,-1.2292 -2.34273,-1.04924 -3.71494,-1.06692l0,5.95481l-0.00159,0.00161l0,0.00001zm-42.41966,7.02173l0,3.63139c-2.6464,2.01493 -9.0688,2.82315 -13.33968,-1.54896c-3.8949,-3.98487 -4.13753,-10.11323 -0.55756,-14.53515c3.70046,-4.57136 10.09073,-4.85255 13.9101,-2.36843l0,3.65387l-1.03157,-0.67486c-2.56285,-1.66304 -5.24943,-2.08884 -8.04206,-0.65557c-3.81777,1.93781 -5.29442,7.17759 -3.12363,10.92145c2.20614,3.8049 6.93336,4.95538 10.70935,2.5966l1.47504,-1.02193l0,0.00161l0.00001,-0.00001zm16.12107,4.8879l-3.04489,0l-0.08034,-1.51521c-0.14782,0.07552 -0.24583,0.10283 -0.31172,0.16389c-2.8119,2.58374 -8.35538,1.7948 -9.68903,-3.52694c-0.5913,-2.35075 -0.32136,-4.61956 1.18904,-6.6361c1.9812,-2.67533 5.84877,-3.21682 8.29913,-1.0396c0.12374,0.10926 0.26032,0.20406 0.49492,0.38563l0.09641,-1.65179l3.05292,0l0.0016,13.81852l-0.00804,0.00161l0,-0.00002zm-3.31643,-6.88515c0.00161,-2.15633 -1.65502,-3.95274 -3.64745,-3.95274c-1.91852,0.00161 -3.60727,1.80605 -3.63138,3.88364c-0.0257,2.1258 1.66786,3.9431 3.66352,3.93346c1.96513,-0.01125 3.6121,-1.7707 3.61531,-3.86436zm48.25233,6.91729c-4.12627,-0.00803 -7.11816,-3.08185 -7.10207,-7.29168c0.01605,-3.89489 3.24091,-7.00567 7.23061,-6.98478c4.01701,0.02089 7.18242,3.18147 7.19365,7.18241c0.01126,4.01701 -3.16539,7.10207 -7.33665,7.09243l0.01447,0.00161l-0.00002,0.00001zm0.16068,-3.21361c2.18526,-0.01607 3.86758,-1.73856 3.85632,-3.94793c-0.01286,-2.13062 -1.87032,-4.02023 -3.93988,-3.89168c-2.35075,0.14783 -3.83061,1.77552 -3.8997,3.98005c-0.06427,2.09367 1.8446,3.87561 3.98487,3.85954l-0.00161,0l0,0.00001zm8.80528,-10.64347l3.8981,0l3.04008,3.93667l3.10114,-3.94792l4.02664,0l-5.08554,6.3533l5.85199,7.45556l-3.88847,0l-3.98486,-5.03894l-4.10217,5.04537l-4.01701,0l6.10909,-7.45557l-4.94896,-6.34688l0,-0.00161l-0.00002,0.00001zm-43.24873,4.03951l-2.97903,0l-0.32617,-0.57845c-0.28922,-0.41295 -0.7343,-0.58648 -1.13762,-0.32136c-0.28922,0.19282 -0.55756,0.59934 -0.59452,0.93837c-0.05302,0.45633 0.2571,0.8034 0.77128,0.89981l1.19707,0.16068c2.15312,0.4724 3.60246,2.52268 3.36143,4.73525c-0.25066,2.30416 -2.05991,3.95274 -4.33839,3.96399c-2.2463,0.01285 -4.14554,-1.61163 -4.4187,-3.78885c-0.02412,-0.19281 -0.0032,-0.38564 -0.0032,-0.61862l2.81833,0l0.26511,0.62344c0.36958,0.68291 1.00587,0.97212 1.68394,0.80341c0.6138,-0.16871 1.11192,-0.81625 1.09264,-1.42363c-0.02089,-0.72306 -0.54953,-1.28544 -1.32401,-1.43969l-1.09262,-0.18479c-2.11456,-0.50454 -3.21362,-1.92816 -3.10918,-3.97363c0.10284,-2.02939 1.62931,-3.68762 3.58318,-3.88847c1.98441,-0.20406 3.78563,0.97533 4.34962,2.87136c0.10765,0.36956 0.13657,0.76484 0.2153,1.22117l-0.01446,0l0.00002,0.00002zm7.50377,-8.10311l0,4.724l1.74178,0.11247l0,2.74282l-1.74338,0.08034l0,10.18714l-3.04328,0l0,-10.16625l-1.87997,-0.10926l0,-2.74121l1.83177,-0.10444l0,-4.724l3.0931,-0.00161l-0.00002,0z" fill="#f25f35" id="svg_2" stroke="null"/>
  <g id="svg_12">
   <path id="svg_4" fill="#747577" d="m45,11.96168l0,-7.90162l1.0605,0l0,6.88592l3.3907,0l0,0.956l-4.4512,0.0597z"/>
   <path id="svg_5" fill="#747577" d="m51.8262,5.22483c-0.1357,0.13299 -0.3178,0.20798 -0.5078,0.20912c-0.0943,0.00023 -0.1876,-0.01812 -0.2748,-0.054c-0.0871,-0.03588 -0.1663,-0.0886 -0.2331,-0.15512c-0.0668,-0.06661 -0.1199,-0.14576 -0.1561,-0.23291c-0.0361,-0.08715 -0.0548,-0.18058 -0.0548,-0.27495c0,-0.09436 0.0187,-0.1878 0.0548,-0.27494c0.0362,-0.08715 0.0893,-0.1663 0.1561,-0.23291c0.0668,-0.06652 0.146,-0.11924 0.2331,-0.15512c0.0872,-0.03588 0.1805,-0.05423 0.2748,-0.054c0.142,-0.00035 0.281,0.04151 0.3992,0.12027c0.1183,0.07876 0.2104,0.19086 0.2648,0.32209c0.0544,0.13123 0.0686,0.27566 0.0408,0.41497c-0.0278,0.13931 -0.0963,0.26722 -0.197,0.3675l0,0zm0,6.70675l-1.0157,0l0,-5.36242l1.0157,0l0,5.36242z"/>
   <path id="svg_6" fill="#747577" d="m55.5756,12.11048c-0.5316,0.0206 -1.0556,-0.1314 -1.4937,-0.4332c-0.3761,-0.2809 -0.67,-0.6574 -0.8514,-1.0904l0.8962,-0.3734c0.1066,0.3064 0.3099,0.5697 0.5794,0.7503c0.2695,0.1806 0.5904,0.2685 0.9143,0.2505c0.2738,0.0075 0.5438,-0.0652 0.7767,-0.2091c0.093,-0.0589 0.1693,-0.1406 0.2216,-0.2374c0.0523,-0.0967 0.0789,-0.2053 0.0772,-0.3153c0,-0.3436 -0.239,-0.5825 -0.7319,-0.702l-1.0904,-0.26891c-0.3536,-0.09715 -0.6839,-0.26482 -0.9709,-0.49292c-0.1483,-0.12053 -0.2671,-0.27335 -0.3474,-0.44679c-0.0802,-0.17345 -0.1198,-0.36293 -0.1157,-0.55399c-0.0008,-0.22904 0.0563,-0.45457 0.166,-0.65564c0.1097,-0.20107 0.2684,-0.37118 0.4614,-0.4945c0.4394,-0.30053 0.9614,-0.45711 1.4937,-0.44811c0.4453,-0.00866 0.8844,0.10501 1.2696,0.32861c0.3639,0.20679 0.644,0.53443 0.7917,0.92609l-0.8664,0.35849c-0.1034,-0.23592 -0.2794,-0.43267 -0.5024,-0.56163c-0.223,-0.12895 -0.4813,-0.18338 -0.7373,-0.15534c-0.2617,-0.00181 -0.5193,0.06515 -0.7469,0.19418c-0.0954,0.04574 -0.1757,0.11791 -0.2313,0.20793c-0.0556,0.09003 -0.0842,0.19413 -0.0824,0.29992c0,0.29874 0.239,0.50786 0.717,0.61242l1.0605,0.25393c0.4296,0.07843 0.8224,0.29318 1.1203,0.61241c0.2281,0.26665 0.355,0.60505 0.3585,0.95595c0.0023,0.2344 -0.0505,0.4661 -0.1543,0.6763c-0.1038,0.2102 -0.2556,0.393 -0.4432,0.5336c-0.4403,0.336 -0.9853,0.5054 -1.5385,0.478l0,0z"/>
   <path id="svg_7" fill="#747577" d="m61.2661,12.02178c-0.2376,0.0471 -0.483,0.0357 -0.7152,-0.0332c-0.2322,-0.0689 -0.4442,-0.1932 -0.6177,-0.3623c-0.1734,-0.169 -0.3032,-0.3777 -0.378,-0.608c-0.0749,-0.2304 -0.0926,-0.4755 -0.0516,-0.7142l0,-2.80816l-0.9411,0l0,-0.9261l0.9411,0l0,-1.64306l1.0007,0l0,1.64306l1.3294,0l0,0.9261l-1.3294,0l0,2.73346c0,0.5825 0.254,0.8813 0.7319,0.8813c0.159,0.0033 0.3169,-0.0272 0.4631,-0.0896l0.3435,0.8663c-0.2482,0.093 -0.5116,0.1386 -0.7767,0.1344l0,0z"/>
   <path id="svg_8" fill="#747577" d="m65.6427,12.11158c-0.36949,0.0146 -0.73779,-0.0498 -1.0804,-0.1889c-0.3426,-0.1391 -0.6515,-0.3497 -0.9062,-0.6177c-0.5139,-0.555 -0.7877,-1.2905 -0.7618,-2.04636c-0.01,-0.74157 0.2562,-1.46033 0.7468,-2.01649c0.2253,-0.26775 0.5066,-0.48279 0.824,-0.6299c0.3175,-0.14712 0.6634,-0.22274 1.01331,-0.22151c0.3554,-0.01252 0.7094,0.05021 1.03889,0.18406c0.3295,0.13386 0.627,0.33582 0.873,0.59266c0.4976,0.57974 0.7542,1.32809 0.717,2.09118l0,0.17924l-4.1226,0c0.0053,0.48182 0.19821,0.94262 0.5377,1.28462c0.1532,0.1523 0.33501,0.273 0.5349,0.355c0.2,0.082 0.4141,0.1238 0.6302,0.1229c0.3149,0.0234 0.6291,-0.0537 0.89751,-0.2201c0.2683,-0.1664 0.4771,-0.4135 0.59619,-0.7059l0.9111,0.3734c-0.18849,0.4207 -0.48799,0.7821 -0.8663,1.0456c-0.4657,0.3136 -1.0235,0.4609 -1.5833,0.4182l0,0zm1.4937,-3.51019c-0.0318,-0.32937 -0.18009,-0.63659 -0.41829,-0.86634c-0.29031,-0.25585 -0.6604,-0.40313 -1.0471,-0.41675c-0.38681,-0.01362 -0.7663,0.10727 -1.0739,0.34206c-0.28531,0.2281 -0.49811,0.53432 -0.61241,0.88129l3.1517,0.05974z"/>
   <path id="svg_9" fill="#747577" d="m70.4826,6.57032l0,0.74685c0.16269,-0.27936 0.4008,-0.50716 0.6871,-0.65722c0.3037,-0.17725 0.6492,-0.27008 1.0008,-0.26887c0.27869,-0.01406 0.5571,0.03353 0.81531,0.13939c0.25819,0.10585 0.4898,0.26737 0.67839,0.47303c0.3755,0.46279 0.5669,1.04784 0.5378,1.64306l0,3.28612l-1.01579,0l0,-3.12181c0,-1.00078 -0.4331,-1.4937 -1.32941,-1.4937c-0.1962,-0.0041 -0.39059,0.03844 -0.5672,0.12413c-0.1766,0.0857 -0.33029,0.21209 -0.4485,0.36879c-0.26259,0.33052 -0.4001,0.74311 -0.38829,1.16509l0,2.9874l-0.94111,0l0,-5.39226l0.97091,0z"/>
   <path id="svg_10" fill="#747577" d="m79.20531,7.21211c0.26079,-0.26104 0.5705,-0.46813 0.9113,-0.60942c0.3409,-0.1413 0.70629,-0.21402 1.07529,-0.21402c0.369,0 0.73441,0.07272 1.0753,0.21402c0.34081,0.14129 0.65051,0.34838 0.91131,0.60942c0.5008,0.56109 0.7775,1.28685 0.7775,2.0389c0,0.75207 -0.2767,1.47777 -0.7775,2.03887c-0.2608,0.2611 -0.5705,0.4682 -0.91131,0.6095c-0.3409,0.1412 -0.7063,0.214 -1.0753,0.214c-0.369,0 -0.73439,-0.0728 -1.07529,-0.214c-0.34081,-0.1413 -0.65051,-0.3484 -0.9113,-0.6095c-0.5008,-0.5611 -0.7775,-1.2868 -0.7775,-2.03887c0,-0.75205 0.2767,-1.47781 0.7775,-2.0389l0,0zm0.7618,3.45047c0.1544,0.1712 0.3434,0.3077 0.5546,0.4004c0.2112,0.0927 0.43961,0.1395 0.6702,0.1373c0.23251,0.0006 0.46271,-0.0468 0.67601,-0.1394c0.21339,-0.0925 0.4053,-0.2281 0.5638,-0.3983c0.1757,-0.1878 0.3125,-0.4086 0.40221,-0.6496c0.0898,-0.241 0.13069,-0.49751 0.1206,-0.7545c0.0207,-0.27158 -0.015,-0.54452 -0.105,-0.8016c-0.09,-0.25709 -0.2323,-0.49274 -0.4178,-0.6921c-0.16141,-0.16541 -0.35419,-0.29687 -0.56709,-0.38665c-0.21291,-0.08978 -0.4416,-0.13607 -0.67271,-0.13614c-0.2291,-0.00136 -0.45599,0.04433 -0.66669,0.13426c-0.2107,0.08993 -0.4006,0.22217 -0.5581,0.38853c-0.1888,0.19722 -0.33311,0.43258 -0.4232,0.69022c-0.09019,0.25765 -0.1242,0.53161 -0.09959,0.80348c-0.0137,0.25736 0.0257,0.5148 0.1156,0.7563c0.09,0.2415 0.2285,0.462 0.4072,0.6478l0,0z"/>
   <path id="svg_11" fill="#747577" d="m86.1661,6.56909l0,0.74685c0.16691,-0.27602 0.40401,-0.50281 0.6871,-0.65723c0.3092,-0.17714 0.65949,-0.26986 1.01569,-0.26886c0.2843,-0.00759 0.56671,0.04734 0.82741,0.1609c0.2607,0.11357 0.4933,0.283 0.6813,0.49633c0.36399,0.46813 0.54939,1.05064 0.5228,1.64306l0,3.28614l-1.00081,0l0,-3.16664c0,-1.00078 -0.44809,-1.4937 -1.3294,-1.4937c-0.1964,-0.00534 -0.39119,0.03666 -0.568,0.12245c-0.17679,0.0858 -0.3304,0.21286 -0.44769,0.37047c-0.2668,0.32909 -0.40961,0.74146 -0.40331,1.16509l0,2.98743l-1.00079,0l0,-5.39229l1.01569,0z"/>
  </g>
 </g>

</svg>