<svg xmlns="http://www.w3.org/2000/svg" xmlns:xlink="http://www.w3.org/1999/xlink" width="430" zoomAndPan="magnify" viewBox="0 0 322.5 101.249998" height="135" preserveAspectRatio="xMidYMid meet" version="1.0"><defs><g/><clipPath id="id1"><path d="M 0.9375 0 L 321.066406 0 L 321.066406 100.503906 L 0.9375 100.503906 Z M 0.9375 0 " clip-rule="nonzero"/></clipPath><clipPath id="id2"><path d="M 11.003906 6.015625 L 90 6.015625 L 90 94.746094 L 11.003906 94.746094 Z M 11.003906 6.015625 " clip-rule="nonzero"/></clipPath></defs><g clip-path="url(#id1)"><path fill="rgb(100%, 100%, 100%)" d="M 0.9375 0 L 321.5625 0 L 321.5625 108.117188 L 0.9375 108.117188 Z M 0.9375 0 " fill-opacity="1" fill-rule="nonzero"/><path fill="rgb(100%, 100%, 100%)" d="M 0.9375 0 L 321.5625 0 L 321.5625 100.660156 L 0.9375 100.660156 Z M 0.9375 0 " fill-opacity="1" fill-rule="nonzero"/><path fill="rgb(100%, 100%, 100%)" d="M 0.9375 0 L 321.5625 0 L 321.5625 100.660156 L 0.9375 100.660156 Z M 0.9375 0 " fill-opacity="1" fill-rule="nonzero"/><path fill="rgb(100%, 100%, 100%)" d="M 0.9375 0 L 321.5625 0 L 321.5625 100.660156 L 0.9375 100.660156 Z M 0.9375 0 " fill-opacity="1" fill-rule="nonzero"/></g><g fill="rgb(0%, 0%, 0%)" fill-opacity="1"><g transform="translate(100.451684, 38.430255)"><g><path d="M 8.433594 0.378906 C 13.691406 0.378906 15.679688 -2.460938 15.679688 -6.375 L 15.679688 -17.066406 L 11.65625 -17.066406 L 11.65625 -6.375 C 11.65625 -4.628906 11.027344 -3.199219 8.433594 -3.199219 C 5.816406 -3.199219 5.191406 -4.628906 5.191406 -6.375 L 5.191406 -17.066406 L 1.164062 -17.066406 L 1.164062 -6.375 C 1.164062 -2.460938 3.152344 0.378906 8.433594 0.378906 Z M 8.433594 0.378906 "/></g></g></g><g fill="rgb(0%, 0%, 0%)" fill-opacity="1"><g transform="translate(117.877272, 38.430255)"><g><path d="M 12.347656 -7.316406 C 13.847656 -8.164062 14.785156 -9.753906 14.785156 -11.921875 C 14.785156 -15.636719 12.527344 -17.066406 9.394531 -17.066406 L 1.34375 -17.066406 L 1.34375 0 L 5.347656 0 L 5.347656 -6.578125 L 8.589844 -6.578125 L 11.074219 0 L 15.300781 0 Z M 8.835938 -13.488281 C 10.132812 -13.488281 10.828125 -12.90625 10.828125 -11.789062 C 10.828125 -10.625 10.132812 -10.042969 8.835938 -10.042969 L 5.347656 -10.042969 L 5.347656 -13.488281 Z M 8.835938 -13.488281 "/></g></g></g><g fill="rgb(0%, 0%, 0%)" fill-opacity="1"><g transform="translate(134.273874, 38.430255)"><g><path d="M 8.632812 0 C 9.304688 0 11.632812 0 13.289062 -1.253906 C 14.25 -1.992188 14.988281 -3.378906 14.988281 -5.054688 C 14.988281 -7.136719 13.867188 -8.523438 11.832031 -8.96875 C 13.308594 -9.574219 14.113281 -10.917969 14.113281 -12.796875 C 14.113281 -14.003906 13.78125 -14.898438 13.109375 -15.589844 C 12.167969 -16.574219 10.558594 -17.066406 8.320312 -17.066406 L 1.34375 -17.066406 L 1.34375 0 Z M 5.347656 -13.488281 L 7.449219 -13.488281 C 8.613281 -13.488281 9.195312 -13.375 9.574219 -13.085938 C 9.933594 -12.816406 10.109375 -12.414062 10.109375 -11.855469 C 10.109375 -10.738281 9.394531 -10.179688 7.984375 -10.179688 L 5.347656 -10.179688 Z M 5.347656 -7.046875 L 8.410156 -7.046875 C 10.042969 -7.046875 10.984375 -6.800781 10.984375 -5.390625 C 10.984375 -4.765625 10.804688 -4.363281 10.46875 -4.09375 C 9.953125 -3.667969 9.125 -3.578125 8.121094 -3.578125 L 5.347656 -3.578125 Z M 5.347656 -7.046875 "/></g></g></g><g fill="rgb(0%, 0%, 0%)" fill-opacity="1"><g transform="translate(150.558634, 38.430255)"><g><path d="M 4.292969 0 L 5.210938 -3.066406 L 10.894531 -3.066406 L 11.8125 0 L 16.0625 0 L 10.222656 -17.066406 L 5.882812 -17.066406 L 0.0429688 0 Z M 8.054688 -12.617188 L 9.84375 -6.53125 L 6.261719 -6.53125 Z M 8.054688 -12.617188 "/></g></g></g><g fill="rgb(0%, 0%, 0%)" fill-opacity="1"><g transform="translate(167.223668, 38.430255)"><g><path d="M 5.347656 0 L 5.347656 -10.425781 L 11.902344 0 L 15.972656 0 L 15.972656 -17.066406 L 11.96875 -17.066406 L 11.96875 -6.710938 L 5.414062 -17.066406 L 1.34375 -17.066406 L 1.34375 0 Z M 5.347656 0 "/></g></g></g><g fill="rgb(0%, 0%, 0%)" fill-opacity="1"><g transform="translate(185.096635, 38.430255)"><g/></g></g><g fill="rgb(0%, 0%, 0%)" fill-opacity="1"><g transform="translate(191.471854, 38.430255)"><g><path d="M 9.214844 0.378906 C 10.78125 0.378906 12.570312 0.0429688 13.757812 -1.589844 L 13.757812 0 L 17.402344 0 L 17.402344 -9.527344 L 9.84375 -9.527344 L 9.84375 -6.308594 L 13.398438 -6.308594 C 13.289062 -4.117188 11.921875 -3.199219 9.664062 -3.199219 C 6.53125 -3.199219 4.921875 -5.300781 4.921875 -8.546875 C 4.921875 -11.765625 6.53125 -13.847656 9.214844 -13.847656 C 11.320312 -13.847656 12.550781 -12.996094 12.953125 -11.296875 L 17.335938 -11.296875 C 16.777344 -14.988281 14.046875 -17.425781 9.214844 -17.425781 C 3.378906 -17.425781 0.695312 -13.308594 0.695312 -8.546875 C 0.695312 -3.78125 3.378906 0.378906 9.214844 0.378906 Z M 9.214844 0.378906 "/></g></g></g><g fill="rgb(0%, 0%, 0%)" fill-opacity="1"><g transform="translate(210.530391, 38.430255)"><g><path d="M 4.292969 0 L 5.210938 -3.066406 L 10.894531 -3.066406 L 11.8125 0 L 16.0625 0 L 10.222656 -17.066406 L 5.882812 -17.066406 L 0.0429688 0 Z M 8.054688 -12.617188 L 9.84375 -6.53125 L 6.261719 -6.53125 Z M 8.054688 -12.617188 "/></g></g></g><g fill="rgb(0%, 0%, 0%)" fill-opacity="1"><g transform="translate(227.195425, 38.430255)"><g><path d="M 12.347656 -7.316406 C 13.847656 -8.164062 14.785156 -9.753906 14.785156 -11.921875 C 14.785156 -15.636719 12.527344 -17.066406 9.394531 -17.066406 L 1.34375 -17.066406 L 1.34375 0 L 5.347656 0 L 5.347656 -6.578125 L 8.589844 -6.578125 L 11.074219 0 L 15.300781 0 Z M 8.835938 -13.488281 C 10.132812 -13.488281 10.828125 -12.90625 10.828125 -11.789062 C 10.828125 -10.625 10.132812 -10.042969 8.835938 -10.042969 L 5.347656 -10.042969 L 5.347656 -13.488281 Z M 8.835938 -13.488281 "/></g></g></g><g fill="rgb(0%, 0%, 0%)" fill-opacity="1"><g transform="translate(243.592029, 38.430255)"><g><path d="M 6.507812 0 C 12.324219 0 15.523438 -3.042969 15.523438 -8.566406 C 15.523438 -14.046875 12.324219 -17.066406 6.507812 -17.066406 L 1.34375 -17.066406 L 1.34375 0 Z M 5.347656 -13.488281 L 6.464844 -13.488281 C 9.574219 -13.488281 11.519531 -11.8125 11.519531 -8.566406 C 11.519531 -5.101562 9.753906 -3.578125 6.464844 -3.578125 L 5.347656 -3.578125 Z M 5.347656 -13.488281 "/></g></g></g><g fill="rgb(0%, 0%, 0%)" fill-opacity="1"><g transform="translate(260.391284, 38.430255)"><g><path d="M 12.996094 0 L 12.996094 -3.578125 L 5.347656 -3.578125 L 5.347656 -6.753906 L 12.257812 -6.753906 L 12.257812 -10.3125 L 5.347656 -10.3125 L 5.347656 -13.488281 L 12.996094 -13.488281 L 12.996094 -17.066406 L 1.34375 -17.066406 L 1.34375 0 Z M 12.996094 0 "/></g></g></g><g fill="rgb(0%, 0%, 0%)" fill-opacity="1"><g transform="translate(274.908885, 38.430255)"><g><path d="M 5.347656 0 L 5.347656 -10.425781 L 11.902344 0 L 15.972656 0 L 15.972656 -17.066406 L 11.96875 -17.066406 L 11.96875 -6.710938 L 5.414062 -17.066406 L 1.34375 -17.066406 L 1.34375 0 Z M 5.347656 0 "/></g></g></g><g fill="rgb(0%, 0%, 0%)" fill-opacity="1"><g transform="translate(100.451684, 76.278918)"><g><path d="M 9.980469 0 C 18.898438 0 23.804688 -4.664062 23.804688 -13.136719 C 23.804688 -21.539062 18.898438 -26.171875 9.980469 -26.171875 L 2.058594 -26.171875 L 2.058594 0 Z M 8.199219 -20.683594 L 9.914062 -20.683594 C 14.679688 -20.683594 17.664062 -18.109375 17.664062 -13.136719 C 17.664062 -7.820312 14.953125 -5.488281 9.914062 -5.488281 L 8.199219 -5.488281 Z M 8.199219 -20.683594 "/></g></g></g><g fill="rgb(0%, 0%, 0%)" fill-opacity="1"><g transform="translate(126.210542, 76.278918)"><g><path d="M 18.933594 -11.214844 C 21.230469 -12.519531 22.671875 -14.953125 22.671875 -18.28125 C 22.671875 -23.976562 19.207031 -26.171875 14.40625 -26.171875 L 2.058594 -26.171875 L 2.058594 0 L 8.199219 0 L 8.199219 -10.085938 L 13.171875 -10.085938 L 16.976562 0 L 23.460938 0 Z M 13.546875 -20.683594 C 15.539062 -20.683594 16.601562 -19.789062 16.601562 -18.074219 C 16.601562 -16.292969 15.539062 -15.402344 13.546875 -15.402344 L 8.199219 -15.402344 L 8.199219 -20.683594 Z M 13.546875 -20.683594 "/></g></g></g><g fill="rgb(0%, 0%, 0%)" fill-opacity="1"><g transform="translate(151.35202, 76.278918)"><g><path d="M 19.929688 0 L 19.929688 -5.488281 L 8.199219 -5.488281 L 8.199219 -10.359375 L 18.796875 -10.359375 L 18.796875 -15.8125 L 8.199219 -15.8125 L 8.199219 -20.683594 L 19.929688 -20.683594 L 19.929688 -26.171875 L 2.058594 -26.171875 L 2.058594 0 Z M 19.929688 0 "/></g></g></g><g fill="rgb(0%, 0%, 0%)" fill-opacity="1"><g transform="translate(173.612348, 76.278918)"><g><path d="M 6.585938 0 L 7.992188 -4.699219 L 16.703125 -4.699219 L 18.109375 0 L 24.628906 0 L 15.675781 -26.171875 L 9.019531 -26.171875 L 0.0703125 0 Z M 12.347656 -19.34375 L 15.089844 -10.015625 L 9.605469 -10.015625 Z M 12.347656 -19.34375 "/></g></g></g><g fill="rgb(0%, 0%, 0%)" fill-opacity="1"><g transform="translate(199.16542, 76.278918)"><g><path d="M 8.199219 0 L 8.199219 -21.128906 L 13.273438 0 L 19.242188 0 L 24.316406 -21.265625 L 24.316406 0 L 30.457031 0 L 30.457031 -26.171875 L 20.546875 -26.171875 L 16.257812 -7.339844 L 11.9375 -26.171875 L 2.058594 -26.171875 L 2.058594 0 Z M 8.199219 0 "/></g></g></g><g fill="rgb(0%, 0%, 0%)" fill-opacity="1"><g transform="translate(232.573061, 76.278918)"><g><path d="M 13.066406 0.582031 C 19.414062 0.582031 23.289062 -2.640625 23.289062 -7.785156 C 23.289062 -13.855469 17.800781 -15.089844 13.375 -16.085938 C 10.394531 -16.773438 7.855469 -17.355469 7.855469 -19.242188 C 7.855469 -20.886719 9.570312 -21.574219 11.320312 -21.574219 C 13.890625 -21.574219 15.675781 -20.238281 16.292969 -18.007812 L 22.636719 -18.007812 C 21.8125 -23.839844 16.945312 -26.71875 11.457031 -26.71875 C 6.105469 -26.71875 1.75 -24.148438 1.75 -18.726562 C 1.75 -12.964844 6.996094 -11.800781 11.386719 -10.804688 C 14.472656 -10.117188 17.117188 -9.535156 17.117188 -7.476562 C 17.117188 -5.417969 15.125 -4.5625 13.035156 -4.5625 C 10.667969 -4.5625 8.300781 -5.453125 7.410156 -8.882812 L 1.0625 -8.882812 C 1.542969 -1.542969 8.128906 0.582031 13.066406 0.582031 Z M 13.066406 0.582031 "/></g></g></g><g clip-path="url(#id2)"><path fill="rgb(0%, 0%, 0%)" d="M 89.585938 26.910156 C 84.109375 26.808594 78.90625 28.308594 74.484375 31.648438 C 72.273438 33.320312 70.472656 35.46875 68.191406 37.035156 C 66.320312 38.332031 63.90625 38.601562 62.136719 39.964844 C 60.640625 41.125 59.960938 43.070312 59.382812 44.808594 C 58.191406 48.453125 57.511719 51.113281 55.097656 54.214844 C 54.6875 54.761719 54.347656 55.273438 54.042969 55.785156 C 55.84375 51.214844 57.546875 45.964844 57.34375 41.023438 C 57.308594 39.863281 57 38.945312 56.867188 37.785156 C 56.421875 34.75 56.695312 32.671875 57.035156 29.738281 C 57.238281 27.796875 57.410156 25.992188 56.933594 24.046875 C 55.878906 19.886719 52.820312 17.46875 49.28125 15.421875 C 46.59375 13.890625 44.144531 12.421875 41.867188 10.277344 C 40.199219 8.707031 38.738281 7.207031 36.730469 6.015625 C 36.457031 5.878906 36.117188 6.117188 36.21875 6.425781 C 37.546875 10.890625 37.613281 14.910156 36.355469 19.378906 C 35.675781 21.796875 34.585938 24.183594 34.417969 26.742188 C 34.078125 31.683594 37.34375 34.582031 39.691406 38.535156 C 41.289062 41.261719 40.878906 44.125 40.777344 46.921875 C 39.996094 46.035156 39.347656 45.964844 38.058594 45.625 C 36.015625 45.964844 34.042969 45.558594 32.171875 44.328125 C 31.765625 43.921875 31.355469 43.511719 30.980469 43.070312 C 29.960938 42.148438 29.28125 40.886719 28.160156 40.035156 C 26.628906 38.839844 25.03125 38.464844 23.125 38.261719 C 19.179688 37.820312 15.40625 37.683594 11.5625 36.589844 C 11.1875 36.488281 10.984375 37 11.289062 37.238281 C 13.535156 38.738281 15.640625 40.238281 16.628906 43 C 17.207031 44.671875 17.105469 46.511719 17.410156 48.25 C 17.648438 49.613281 17.957031 50.976562 18.738281 52.136719 C 21.050781 55.476562 25.539062 55.511719 28.875 57.078125 C 31.664062 58.40625 31.96875 59.839844 33.160156 62.53125 C 33.296875 62.875 33.261719 63.519531 33.535156 63.792969 C 34.28125 64.714844 34.792969 64.78125 35.8125 65.15625 C 37.953125 66.007812 40.574219 65.703125 42.820312 66.453125 C 46.320312 67.578125 49.316406 69.519531 51.96875 72.042969 C 50.097656 72.042969 48.261719 72.007812 46.390625 72.007812 C 45.949219 72.007812 45.949219 72.691406 46.390625 72.691406 C 49.179688 72.726562 51.96875 72.726562 54.722656 72.757812 C 56.898438 72.757812 61.390625 71.871094 62.546875 74.121094 C 63.261719 75.519531 61.867188 80.667969 61.695312 82.371094 C 61.320312 85.882812 61.695312 91.40625 57.683594 93.179688 C 54.996094 94.371094 49.925781 93.757812 47.171875 93.3125 C 42.921875 92.632812 41.796875 90.042969 41.390625 85.917969 C 41.117188 83.222656 41.015625 80.53125 41.015625 77.839844 C 41.015625 74.121094 41.253906 71.769531 45.503906 71.769531 C 45.949219 71.769531 45.949219 71.089844 45.503906 71.089844 C 44.347656 71.089844 41.695312 70.507812 40.777344 71.429688 C 39.453125 72.757812 40.300781 78.519531 40.335938 80.292969 C 40.4375 84.828125 39.453125 92.054688 44.6875 93.554688 C 48.5 94.644531 57.988281 96.042969 60.777344 92.257812 C 62 90.585938 61.832031 87.585938 62 85.710938 C 62.476562 81.316406 62.921875 76.917969 63.394531 72.519531 C 63.429688 72.316406 63.226562 72.179688 63.054688 72.179688 C 59.585938 72.144531 56.117188 72.144531 52.648438 72.113281 C 52.714844 72.007812 52.683594 71.871094 52.582031 71.738281 C 50.164062 69.453125 47.476562 67.578125 44.347656 66.351562 C 42.546875 65.632812 40.777344 65.394531 38.90625 64.917969 C 36.527344 64.304688 34.996094 62.769531 33.566406 60.792969 C 32.207031 58.917969 31.527344 57.554688 29.179688 56.464844 C 23.773438 53.976562 18.941406 54.316406 17.921875 46.953125 C 17.546875 44.328125 17.308594 41.875 15.507812 39.796875 C 14.929688 39.148438 13.226562 37.511719 12.820312 37.75 C 13.363281 37.445312 16.628906 38.535156 17.378906 38.636719 C 19.929688 38.976562 22.410156 38.839844 24.929688 39.523438 C 27.820312 40.308594 28.875 42.078125 30.847656 44.089844 C 31.628906 44.875 32.480469 45.761719 33.535156 46.171875 C 35.574219 46.953125 38.941406 45.761719 40.402344 47.636719 C 40.472656 47.738281 40.609375 47.773438 40.710938 47.773438 C 40.675781 49.785156 40.914062 51.761719 42.308594 53.636719 C 44.078125 55.988281 46.457031 57.929688 48.261719 60.28125 C 49.824219 62.292969 51.1875 64.40625 52.410156 66.625 C 52.511719 67.988281 52.613281 69.316406 52.714844 70.679688 C 52.75 71.121094 53.429688 71.121094 53.398438 70.679688 C 53.328125 69.828125 53.292969 68.976562 53.226562 68.125 L 53.839844 69.351562 C 53.941406 69.554688 54.144531 69.554688 54.28125 69.488281 C 54.179688 69.757812 54.078125 69.996094 54.007812 70.269531 C 53.839844 70.679688 54.519531 70.882812 54.6875 70.441406 C 56.832031 64.679688 59.179688 58.953125 62.511719 53.738281 C 63.023438 52.921875 63.566406 52.136719 64.144531 51.351562 C 64.28125 51.453125 64.449219 51.488281 64.585938 51.351562 C 66.933594 49.238281 68.871094 46.988281 70.574219 44.328125 C 70.8125 43.988281 70.300781 43.648438 70.027344 43.921875 C 62.375 50.636719 57.988281 59.667969 54.449219 69.042969 L 54.449219 69.007812 C 54.007812 68.125 53.566406 67.269531 53.089844 66.417969 C 52.546875 59.53125 51.695312 52.679688 50.472656 45.898438 C 49.214844 38.910156 47.511719 32.160156 43.261719 26.332031 C 43.125 26.125 42.851562 26.160156 42.714844 26.261719 C 42.613281 26.058594 42.511719 25.855469 42.375 25.648438 C 42.613281 26.023438 43.226562 25.683594 42.988281 25.308594 C 42.953125 25.273438 42.921875 25.242188 42.921875 25.171875 C 42.820312 25.035156 42.683594 24.96875 42.511719 25 C 42.445312 25 42.410156 25.035156 42.34375 25.035156 C 42.171875 25.070312 42.105469 25.242188 42.105469 25.375 C 41.832031 27.457031 43.160156 30.285156 43.941406 32.195312 C 45.03125 34.851562 46.492188 37.273438 48.226562 39.558594 C 48.292969 39.660156 48.398438 39.695312 48.464844 39.695312 C 49.007812 41.773438 49.417969 43.921875 49.824219 46.035156 C 50.949219 52.304688 51.730469 58.613281 52.308594 64.953125 C 50.742188 62.292969 48.941406 59.738281 46.898438 57.417969 C 46.082031 56.464844 45.164062 55.613281 44.316406 54.691406 C 41.867188 52.035156 41.628906 49.921875 41.695312 46.273438 C 41.730469 44.671875 42.171875 43.238281 41.796875 41.636719 C 40.949219 37.785156 37.511719 35.332031 36.050781 31.820312 C 33.566406 25.855469 37.511719 20.570312 37.953125 14.640625 C 38.023438 13.652344 36.96875 8.296875 37.375 7.820312 C 38.191406 6.902344 41.152344 10.582031 42.34375 11.671875 C 45.878906 14.84375 50.777344 16.207031 53.941406 19.820312 C 58.464844 25 55.300781 31.105469 56.082031 37.101562 C 56.96875 43.886719 55.742188 49.851562 53.191406 56.191406 C 53.054688 56.535156 53.429688 56.703125 53.703125 56.566406 C 52.207031 59.839844 52.785156 63.011719 54.078125 66.929688 C 54.214844 67.339844 54.894531 67.167969 54.757812 66.757812 C 53.292969 62.328125 52.785156 58.75 55.675781 54.691406 C 56.765625 53.160156 57.921875 51.964844 58.632812 50.125 C 59.28125 48.453125 59.585938 46.683594 60.132812 44.976562 C 61.355469 41.226562 62.988281 40.511719 66.21875 39.046875 C 70.0625 37.308594 72.648438 33.726562 76.117188 31.410156 C 78.496094 29.808594 81.21875 28.648438 84.007812 28.070312 C 84.652344 27.933594 88.054688 27.183594 88.328125 27.796875 C 88.496094 28.171875 86.523438 29.808594 86.355469 29.980469 C 83.394531 33.046875 82.101562 36.011719 81.183594 40.136719 C 80.402344 43.613281 79.007812 46.339844 75.8125 48.148438 C 74.078125 49.136719 71.898438 49.304688 70.335938 50.535156 C 67.613281 52.679688 68.839844 56.363281 67.851562 59.328125 C 66.015625 64.953125 59.382812 66.214844 55.371094 69.929688 C 55.027344 70.238281 55.539062 70.714844 55.84375 70.40625 C 59.246094 67.269531 64.246094 66.042969 67.171875 62.394531 C 68.191406 61.136719 68.734375 59.875 68.972656 58.273438 C 69.144531 57.148438 68.839844 55.917969 69.109375 54.828125 C 70.234375 49.988281 72.070312 50.601562 74.960938 49.304688 C 77.679688 48.078125 80.027344 46 81.152344 43.171875 C 82.238281 40.445312 82.035156 37.476562 83.464844 34.820312 C 85.027344 31.921875 87.546875 29.636719 89.960938 27.457031 C 90.0625 27.320312 89.859375 26.945312 89.585938 26.910156 Z M 68.363281 46.410156 C 68.839844 45.898438 69.210938 45.488281 69.347656 45.351562 C 69.179688 45.558594 68.566406 46.238281 67.339844 47.671875 C 66.796875 48.285156 66.253906 48.898438 65.640625 49.476562 C 66.527344 48.421875 67.445312 47.398438 68.363281 46.410156 Z M 45.097656 33.25 C 44.316406 31.546875 43.941406 29.398438 43.261719 27.558594 C 45.503906 30.863281 46.96875 34.476562 48.023438 38.226562 C 46.933594 36.660156 45.949219 35.023438 45.097656 33.25 Z M 38.5 56.703125 C 36.289062 54.761719 34.007812 52.785156 31.492188 51.25 C 31.796875 51.523438 31.457031 52.101562 31.117188 51.828125 C 29.929688 50.941406 28.703125 50.054688 27.511719 49.203125 C 27.140625 48.929688 27.445312 48.421875 27.851562 48.589844 C 33.089844 50.910156 37.207031 54.625 41.425781 58.40625 C 45.132812 61.75 50.539062 65.125 52.445312 69.929688 C 52.613281 70.339844 51.933594 70.507812 51.765625 70.101562 C 49.722656 64.917969 42.582031 60.28125 38.5 56.703125 Z M 38.5 56.703125 " fill-opacity="1" fill-rule="nonzero"/></g></svg>