<svg xmlns="http://www.w3.org/2000/svg" xmlns:xlink="http://www.w3.org/1999/xlink" width="3000" zoomAndPan="magnify" viewBox="0 0 2250 2250.000011" height="3000" preserveAspectRatio="xMidYMid meet" version="1.0"><defs><g><g id="id1"/><g id="id2"/><g id="id3"/><g id="id4"/><g id="id5"/><g id="id6"/><g id="id7"/><g id="id8"/><g id="id9"/><g id="id10"/><g id="id11"/><g id="id12"/><g id="id13"/><g id="id14"/><g id="id15"/><g id="id16"/></g><clipPath id="id17"><path d="M 0.5 0 L 2249.5 0 L 2249.5 2249 L 0.5 2249 Z M 0.5 0 " clip-rule="nonzero"/></clipPath><clipPath id="id18"><path d="M 144 282.851562 L 1374 282.851562 L 1374 1662.988281 L 144 1662.988281 Z M 144 282.851562 " clip-rule="nonzero"/></clipPath></defs><g clip-path="url(#id17)"><path fill="rgb(100%, 100%, 100%)" d="M 0.5 0 L 2249.5 0 L 2249.5 2256.496094 L 0.5 2256.496094 Z M 0.5 0 " fill-opacity="1" fill-rule="nonzero"/><path fill="rgb(43.139648%, 54.508972%, 38.819885%)" d="M 0.5 0 L 2249.5 0 L 2249.5 2249 L 0.5 2249 Z M 0.5 0 " fill-opacity="1" fill-rule="nonzero"/><path fill="rgb(100%, 100%, 100%)" d="M 0.5 0 L 2249.5 0 L 2249.5 2249 L 0.5 2249 Z M 0.5 0 " fill-opacity="1" fill-rule="nonzero"/><path fill="rgb(43.139648%, 54.508972%, 38.819885%)" d="M 0.5 0 L 2249.5 0 L 2249.5 2249 L 0.5 2249 Z M 0.5 0 " fill-opacity="1" fill-rule="nonzero"/></g><g clip-path="url(#id18)"><path fill="rgb(100%, 100%, 100%)" d="M 1367.410156 607.871094 C 1282.074219 606.28125 1200.976562 629.609375 1132.074219 681.570312 C 1097.621094 707.550781 1069.527344 740.953125 1034.015625 765.34375 C 1004.863281 785.492188 967.230469 789.734375 939.667969 810.941406 C 916.34375 828.96875 905.746094 859.191406 896.734375 886.230469 C 878.183594 942.964844 867.582031 984.320312 829.949219 1032.570312 C 823.589844 1041.054688 818.289062 1049.007812 813.515625 1056.960938 C 841.609375 985.910156 868.113281 904.257812 864.929688 827.378906 C 864.402344 809.351562 859.628906 795.035156 857.511719 777.007812 C 850.621094 729.820312 854.859375 697.476562 860.160156 651.878906 C 863.339844 621.65625 865.992188 593.554688 858.570312 563.332031 C 842.140625 498.648438 794.4375 461.003906 739.3125 429.191406 C 697.4375 405.332031 659.273438 382.53125 623.761719 349.128906 C 597.789062 324.738281 575 301.410156 543.726562 282.851562 C 539.484375 280.730469 534.183594 284.441406 535.773438 289.214844 C 556.445312 358.671875 557.507812 421.238281 537.894531 490.695312 C 527.292969 528.339844 510.332031 565.453125 507.683594 605.21875 C 502.382812 682.101562 553.265625 727.167969 589.839844 788.671875 C 614.75 831.089844 608.390625 875.628906 606.800781 919.105469 C 594.609375 905.320312 584.539062 904.257812 564.398438 898.957031 C 532.59375 904.257812 501.851562 897.894531 472.699219 878.808594 C 466.339844 872.445312 459.980469 866.082031 454.148438 859.191406 C 438.246094 844.875 427.648438 825.257812 410.15625 812.003906 C 386.304688 793.445312 361.390625 787.613281 331.710938 784.429688 C 270.222656 777.539062 211.390625 775.417969 151.496094 758.449219 C 145.664062 756.859375 142.484375 764.8125 147.253906 768.523438 C 182.238281 791.855469 215.101562 815.183594 230.472656 858.128906 C 239.480469 884.109375 237.890625 912.742188 242.664062 939.78125 C 246.371094 960.992188 251.144531 982.199219 263.332031 1000.226562 C 299.375 1052.1875 369.34375 1052.71875 421.285156 1077.105469 C 464.75 1097.785156 469.519531 1120.054688 488.070312 1161.941406 C 490.191406 1167.242188 489.660156 1177.316406 493.902344 1181.558594 C 505.5625 1195.875 513.511719 1196.933594 529.414062 1202.765625 C 562.808594 1216.023438 603.621094 1211.25 638.601562 1222.914062 C 693.199219 1240.410156 739.839844 1270.632812 781.183594 1309.871094 C 752.03125 1309.871094 723.410156 1309.339844 694.257812 1309.339844 C 687.367188 1309.339844 687.367188 1319.941406 694.257812 1319.941406 C 737.722656 1320.472656 781.183594 1320.472656 824.117188 1321.003906 C 858.039062 1321.003906 928.007812 1307.21875 946.027344 1342.210938 C 957.160156 1363.949219 935.425781 1444.011719 932.777344 1470.523438 C 926.945312 1525.132812 932.777344 1611.027344 870.230469 1638.597656 C 828.359375 1657.15625 749.382812 1647.613281 706.449219 1640.71875 C 640.195312 1630.117188 622.703125 1589.820312 616.339844 1525.664062 C 612.101562 1483.777344 610.511719 1441.890625 610.511719 1400.003906 C 610.511719 1342.210938 614.222656 1305.628906 680.476562 1305.628906 C 687.367188 1305.628906 687.367188 1295.023438 680.476562 1295.023438 C 662.457031 1295.023438 621.113281 1286.011719 606.800781 1300.324219 C 586.128906 1321.003906 599.378906 1410.609375 599.910156 1438.179688 C 601.5 1508.699219 586.128906 1621.101562 667.753906 1644.433594 C 727.121094 1661.398438 875.003906 1683.136719 918.464844 1624.285156 C 937.546875 1598.304688 934.898438 1551.644531 937.546875 1522.484375 C 944.96875 1454.085938 951.859375 1385.6875 959.277344 1317.292969 C 959.808594 1314.109375 956.628906 1311.988281 953.976562 1311.988281 C 899.914062 1311.460938 845.851562 1311.460938 791.785156 1310.929688 C 792.84375 1309.339844 792.316406 1307.21875 790.726562 1305.097656 C 753.09375 1269.574219 711.21875 1240.410156 662.457031 1221.324219 C 634.363281 1210.191406 606.800781 1206.476562 577.648438 1199.054688 C 540.546875 1189.511719 516.695312 1165.652344 494.433594 1134.898438 C 473.230469 1105.738281 462.628906 1084.53125 426.058594 1067.5625 C 341.78125 1028.859375 266.515625 1034.160156 250.613281 919.632812 C 244.78125 878.808594 241.070312 840.632812 212.980469 808.289062 C 203.96875 798.214844 177.46875 772.765625 171.105469 776.476562 C 179.585938 771.707031 230.472656 788.671875 242.132812 790.261719 C 281.886719 795.566406 320.578125 793.445312 359.800781 804.050781 C 404.855469 816.242188 421.285156 843.816406 452.027344 875.097656 C 464.21875 887.292969 477.472656 901.078125 493.902344 907.441406 C 525.703125 919.632812 578.179688 901.078125 600.96875 930.238281 C 602.03125 931.828125 604.152344 932.359375 605.742188 932.359375 C 605.210938 963.640625 608.921875 994.394531 630.652344 1023.554688 C 658.214844 1060.140625 695.316406 1090.363281 723.410156 1126.945312 C 747.792969 1158.230469 768.992188 1191.101562 788.074219 1225.566406 C 789.664062 1246.773438 791.253906 1267.453125 792.84375 1288.660156 C 793.375 1295.554688 803.976562 1295.554688 803.445312 1288.660156 C 802.386719 1275.40625 801.855469 1262.148438 800.796875 1248.894531 L 810.335938 1267.984375 C 811.925781 1271.164062 815.105469 1271.164062 817.226562 1270.101562 C 815.636719 1274.34375 814.046875 1278.054688 812.988281 1282.296875 C 810.335938 1288.660156 820.9375 1291.84375 823.589844 1284.949219 C 856.980469 1195.34375 893.554688 1106.269531 945.496094 1025.148438 C 953.449219 1012.421875 961.929688 1000.226562 970.941406 988.03125 C 973.058594 989.621094 975.710938 990.152344 977.832031 988.03125 C 1014.402344 955.160156 1044.617188 920.164062 1071.117188 878.808594 C 1074.828125 873.507812 1066.878906 868.203125 1062.636719 872.445312 C 943.378906 976.898438 875.003906 1117.402344 819.878906 1263.210938 L 819.878906 1262.679688 C 812.988281 1248.894531 806.097656 1235.640625 798.675781 1222.382812 C 790.195312 1115.28125 776.945312 1008.710938 757.863281 903.199219 C 738.25 794.503906 711.75 689.523438 645.492188 598.859375 C 643.375 595.675781 639.132812 596.207031 637.011719 597.796875 C 635.421875 594.617188 633.832031 591.433594 631.714844 588.253906 C 635.421875 594.085938 644.964844 588.785156 641.253906 582.953125 C 640.722656 582.421875 640.195312 581.890625 640.195312 580.832031 C 638.605469 578.710938 636.484375 577.648438 633.832031 578.179688 C 632.773438 578.179688 632.242188 578.710938 631.183594 578.710938 C 628.53125 579.238281 627.472656 581.890625 627.472656 584.011719 C 623.230469 616.355469 643.902344 660.363281 656.09375 690.054688 C 673.054688 731.410156 695.847656 769.054688 722.878906 804.578125 C 723.941406 806.167969 725.53125 806.699219 726.589844 806.699219 C 735.070312 839.042969 741.433594 872.445312 747.792969 905.320312 C 765.285156 1002.878906 777.472656 1100.964844 786.484375 1199.585938 C 762.101562 1158.230469 734.011719 1118.464844 702.207031 1082.410156 C 689.488281 1067.5625 675.175781 1054.308594 661.925781 1039.992188 C 623.761719 998.636719 620.050781 965.761719 621.113281 909.03125 C 621.640625 884.109375 628.53125 861.839844 622.703125 836.921875 C 609.453125 777.007812 555.917969 738.832031 533.125 684.222656 C 494.433594 591.433594 555.917969 509.253906 562.808594 416.996094 C 563.867188 401.621094 547.4375 318.375 553.796875 310.953125 C 566.519531 296.636719 612.632812 353.902344 631.183594 370.867188 C 686.308594 420.175781 762.632812 441.386719 811.925781 497.585938 C 882.421875 578.179688 833.128906 673.085938 845.320312 766.402344 C 859.101562 871.914062 840.019531 964.703125 800.265625 1063.320312 C 798.144531 1068.625 803.976562 1071.273438 808.21875 1069.152344 C 784.894531 1120.054688 793.90625 1169.363281 814.046875 1230.335938 C 816.167969 1236.699219 826.769531 1234.050781 824.648438 1227.6875 C 801.855469 1158.757812 793.90625 1103.085938 838.960938 1039.992188 C 855.921875 1016.132812 873.941406 997.574219 885.074219 968.945312 C 895.144531 942.964844 899.914062 915.394531 908.394531 888.882812 C 927.476562 830.558594 952.917969 819.425781 1003.273438 796.625 C 1063.167969 769.585938 1103.449219 713.914062 1157.515625 677.859375 C 1194.617188 652.9375 1237.019531 634.910156 1280.484375 625.898438 C 1290.554688 623.777344 1343.558594 612.113281 1347.800781 621.65625 C 1350.449219 627.488281 1319.707031 652.9375 1317.058594 655.589844 C 1270.941406 703.308594 1250.800781 749.4375 1236.492188 813.59375 C 1224.300781 867.675781 1202.566406 910.089844 1152.742188 938.191406 C 1125.710938 953.566406 1091.789062 956.21875 1067.40625 975.308594 C 1025.003906 1008.710938 1044.085938 1065.972656 1028.714844 1112.101562 C 1000.09375 1199.585938 896.734375 1219.203125 834.1875 1276.996094 C 828.886719 1281.769531 836.839844 1289.191406 841.609375 1284.417969 C 894.613281 1235.640625 972.53125 1216.550781 1018.113281 1159.820312 C 1034.015625 1140.203125 1042.496094 1120.585938 1046.207031 1095.664062 C 1048.855469 1078.167969 1044.085938 1059.078125 1048.324219 1042.113281 C 1065.816406 966.824219 1094.4375 976.367188 1139.492188 956.21875 C 1181.894531 937.132812 1218.46875 904.789062 1235.960938 860.78125 C 1252.921875 818.363281 1249.742188 772.238281 1272.003906 730.878906 C 1296.386719 685.8125 1335.609375 650.289062 1373.242188 616.355469 C 1374.832031 614.234375 1371.652344 608.402344 1367.410156 607.871094 Z M 1036.664062 911.152344 C 1044.085938 903.199219 1049.914062 896.835938 1052.035156 894.714844 C 1049.386719 897.894531 1039.84375 908.5 1020.761719 930.769531 C 1012.28125 940.3125 1003.800781 949.855469 994.261719 958.871094 C 1008.042969 942.433594 1022.355469 926.527344 1036.664062 911.152344 Z M 674.117188 706.492188 C 661.925781 679.980469 656.09375 646.578125 645.492188 617.945312 C 680.476562 669.375 703.269531 725.578125 719.699219 783.902344 C 702.738281 759.511719 687.367188 734.0625 674.117188 706.492188 Z M 571.289062 1071.273438 C 536.835938 1041.054688 501.324219 1010.300781 462.097656 986.441406 C 466.871094 990.683594 461.570312 999.695312 456.269531 995.453125 C 437.71875 981.667969 418.636719 967.882812 400.085938 954.628906 C 394.253906 950.386719 399.023438 942.433594 405.386719 945.085938 C 487.011719 981.140625 551.148438 1038.933594 616.871094 1097.785156 C 674.644531 1149.746094 758.921875 1202.238281 788.605469 1276.996094 C 791.253906 1283.359375 780.65625 1286.011719 778.003906 1279.648438 C 746.203125 1199.054688 634.894531 1126.945312 571.289062 1071.273438 Z M 571.289062 1071.273438 " fill-opacity="1" fill-rule="nonzero"/></g><g fill="rgb(100%, 100%, 100%)" fill-opacity="1"><g transform="translate(1137.759522, 1368.073752)"><g><path d="M 9.253906 -65.601562 C 9.804688 -21.683594 34.527344 0 81.621094 0 C 122.085938 0 139.902344 -20.855469 140.039062 -73.886719 L 140.039062 -179.816406 C 140.039062 -196.25 145.839844 -198.046875 145.839844 -198.046875 L 131.203125 -198.046875 C 131.203125 -198.046875 136.863281 -196.113281 136.863281 -179.675781 L 136.863281 -75.542969 C 136.863281 -24.582031 115.320312 -6.628906 81.621094 -6.628906 C 43.226562 -6.628906 26.101562 -32.871094 26.101562 -71.261719 C 26.101562 -185.476562 26.101562 -178.710938 26.101562 -178.710938 C 26.101562 -195.144531 31.765625 -198.046875 31.765625 -198.046875 L 3.453125 -198.046875 C 3.453125 -198.046875 9.253906 -195.144531 9.253906 -178.710938 Z M 9.253906 -65.601562 "/></g></g></g><g fill="rgb(100%, 100%, 100%)" fill-opacity="1"><g transform="translate(1296.645017, 1368.073752)"><g><path d="M 26.792969 -106.480469 C 34.804688 -145.980469 88.386719 -153.4375 99.296875 -114.074219 L 114.214844 -117.667969 C 103.578125 -159.238281 29.003906 -159.652344 26.792969 -106.480469 Z M 3.453125 0 L 31.765625 0 C 31.765625 0 26.101562 -1.796875 26.101562 -18.230469 L 25.964844 -147.914062 L 3.453125 -139.210938 C 3.453125 -139.210938 9.253906 -136.449219 9.253906 -120.015625 L 9.253906 -18.367188 C 9.253906 -1.933594 3.453125 0 3.453125 0 Z M 3.453125 0 "/></g></g></g><g fill="rgb(100%, 100%, 100%)" fill-opacity="1"><g transform="translate(1423.920292, 1368.073752)"><g><path d="M 25.964844 -211.304688 L 3.453125 -202.601562 C 3.453125 -202.601562 9.253906 -199.703125 9.253906 -183.269531 L 9.253906 -18.367188 C 9.253906 -1.933594 3.453125 0 3.453125 0 C 18.367188 0 26.101562 -2.898438 26.101562 -16.296875 L 26.101562 -23.203125 C 35.355469 -9.113281 52.617188 0 74.164062 0 C 115.457031 0 143.90625 -29.140625 143.90625 -74.300781 C 143.90625 -177.191406 26.65625 -158.960938 27.070312 -106.480469 C 40.050781 -151.226562 126.367188 -168.628906 126.367188 -73.886719 C 126.367188 -24.167969 98.882812 -5.800781 75.542969 -5.800781 C 41.292969 -5.800781 26.101562 -28.863281 26.101562 -58.972656 Z M 25.964844 -211.304688 "/></g></g></g><g fill="rgb(100%, 100%, 100%)" fill-opacity="1"><g transform="translate(1580.873204, 1368.073752)"><g><path d="M 116.425781 -61.457031 C 116.425781 -33.699219 97.917969 -7.871094 64.632812 -7.871094 C 37.980469 -7.871094 20.992188 -21.269531 20.992188 -47.921875 C 20.992188 -100.957031 109.792969 -90.597656 115.59375 -106.480469 C 103.855469 -90.320312 3.453125 -109.242188 3.453125 -42.675781 C 3.453125 -27.621094 15.746094 0 61.042969 0 C 92.117188 0 108.277344 -18.367188 116.425781 -36.875 L 116.425781 -18.367188 C 116.425781 -1.65625 127.058594 0 138.933594 0 C 138.933594 0 133.273438 -1.796875 133.273438 -18.230469 L 133.273438 -99.023438 C 133.410156 -124.296875 126.230469 -147.914062 79.824219 -147.914062 C 54.550781 -147.914062 29.140625 -139.074219 16.574219 -112.695312 L 31.351562 -102.890625 C 37.011719 -127.195312 55.65625 -143.355469 79.6875 -143.355469 C 112.558594 -143.355469 116.425781 -121.257812 116.425781 -98.882812 Z M 116.425781 -61.457031 "/></g></g></g><g fill="rgb(100%, 100%, 100%)" fill-opacity="1"><g transform="translate(1732.8569, 1368.073752)"><g><path d="M 3.453125 -139.074219 C 3.453125 -139.074219 9.253906 -136.3125 9.253906 -119.738281 L 9.253906 -18.367188 C 9.253906 -1.933594 3.453125 0 3.453125 0 C 18.367188 0 26.101562 -2.898438 26.101562 -16.296875 L 26.101562 -147.773438 Z M 100.816406 0 L 129.128906 0 C 129.128906 0 123.328125 -1.796875 123.328125 -18.230469 L 123.328125 -109.378906 C 123.328125 -154.402344 36.046875 -168.214844 27.070312 -106.480469 C 40.742188 -154.679688 106.480469 -154.265625 106.480469 -106.203125 C 106.480469 -18.367188 106.480469 -18.367188 106.480469 -18.367188 C 106.480469 -1.933594 100.816406 0 100.816406 0 Z M 100.816406 0 "/></g></g></g><g fill="rgb(100%, 100%, 100%)" fill-opacity="1"><g transform="translate(1137.759522, 1656.075125)"><g><path d="M 142.113281 -11.878906 L 171.804688 -0.136719 C 171.804688 -0.136719 166.140625 -2.898438 166.140625 -19.335938 L 166.140625 -66.429688 C 166.140625 -82.863281 171.804688 -84.660156 171.804688 -84.660156 L 143.492188 -84.660156 C 143.492188 -84.660156 149.292969 -82.726562 149.292969 -66.292969 L 149.292969 -37.839844 C 148.464844 -19.058594 123.882812 -6.492188 90.597656 -6.492188 C 52.203125 -6.492188 20.992188 -35.492188 20.992188 -99.296875 C 20.992188 -162.964844 61.457031 -192.660156 90.597656 -192.660156 C 125.953125 -192.660156 140.179688 -183.40625 158.132812 -154.128906 L 167.523438 -179.539062 C 152.054688 -175.394531 144.460938 -198.046875 96.398438 -198.046875 C 41.984375 -198.046875 3.453125 -161.722656 3.453125 -98.882812 C 3.453125 -36.183594 42.535156 -0.136719 90.597656 -0.136719 C 110.761719 -0.136719 128.164062 -3.867188 142.113281 -11.878906 Z M 142.113281 -11.878906 "/></g></g></g><g fill="rgb(100%, 100%, 100%)" fill-opacity="1"><g transform="translate(1322.595662, 1656.075125)"><g><path d="M 116.425781 -61.457031 C 116.425781 -33.699219 97.917969 -7.871094 64.632812 -7.871094 C 37.980469 -7.871094 20.992188 -21.269531 20.992188 -47.921875 C 20.992188 -100.957031 109.792969 -90.597656 115.59375 -106.480469 C 103.855469 -90.320312 3.453125 -109.242188 3.453125 -42.675781 C 3.453125 -27.621094 15.746094 0 61.042969 0 C 92.117188 0 108.277344 -18.367188 116.425781 -36.875 L 116.425781 -18.367188 C 116.425781 -1.65625 127.058594 0 138.933594 0 C 138.933594 0 133.273438 -1.796875 133.273438 -18.230469 L 133.273438 -99.023438 C 133.410156 -124.296875 126.230469 -147.914062 79.824219 -147.914062 C 54.550781 -147.914062 29.140625 -139.074219 16.574219 -112.695312 L 31.351562 -102.890625 C 37.011719 -127.195312 55.65625 -143.355469 79.6875 -143.355469 C 112.558594 -143.355469 116.425781 -121.257812 116.425781 -98.882812 Z M 116.425781 -61.457031 "/></g></g></g><g fill="rgb(100%, 100%, 100%)" fill-opacity="1"><g transform="translate(1474.579358, 1656.075125)"><g><path d="M 26.792969 -106.480469 C 34.804688 -145.980469 88.386719 -153.4375 99.296875 -114.074219 L 114.214844 -117.667969 C 103.578125 -159.238281 29.003906 -159.652344 26.792969 -106.480469 Z M 3.453125 0 L 31.765625 0 C 31.765625 0 26.101562 -1.796875 26.101562 -18.230469 L 25.964844 -147.914062 L 3.453125 -139.210938 C 3.453125 -139.210938 9.253906 -136.449219 9.253906 -120.015625 L 9.253906 -18.367188 C 9.253906 -1.933594 3.453125 0 3.453125 0 Z M 3.453125 0 "/></g></g></g><g fill="rgb(100%, 100%, 100%)" fill-opacity="1"><g transform="translate(1601.854633, 1656.075125)"><g><path d="M 121.394531 -58.695312 C 121.394531 -32.179688 106.066406 -5.800781 71.953125 -5.800781 C 48.476562 -5.800781 20.992188 -24.167969 20.992188 -73.886719 C 20.992188 -168.628906 109.933594 -155.785156 120.289062 -106.480469 C 117.527344 -172.082031 3.453125 -170.007812 3.453125 -74.300781 C 3.453125 -29.140625 31.902344 0 73.335938 0 C 94.742188 0 112.003906 -9.113281 121.257812 -23.203125 L 121.257812 -16.296875 C 121.257812 -2.898438 128.992188 0 143.90625 0 C 143.90625 0 138.105469 -1.933594 138.105469 -18.367188 L 138.105469 -183.269531 C 138.105469 -199.703125 143.90625 -202.601562 143.90625 -202.601562 L 121.394531 -211.304688 Z M 121.394531 -58.695312 "/></g></g></g><g fill="rgb(100%, 100%, 100%)" fill-opacity="1"><g transform="translate(1758.807545, 1656.075125)"><g><path d="M 20.855469 -77.203125 L 20.855469 -78.996094 L 143.355469 -78.996094 C 143.355469 -128.714844 114.90625 -147.773438 75.820312 -147.773438 C 36.597656 -147.773438 3.453125 -117.253906 3.453125 -76.511719 C 3.453125 -35.769531 33.699219 0.136719 81.070312 0.136719 C 112.003906 0.136719 136.585938 -20.578125 138.933594 -42.535156 C 129.40625 2.210938 21.820312 11.601562 20.855469 -77.203125 Z M 75.820312 -141.421875 C 111.867188 -141.421875 127.609375 -116.285156 127.609375 -83.277344 L 20.992188 -83.277344 C 23.339844 -117.113281 47.785156 -141.421875 75.820312 -141.421875 Z M 75.820312 -141.421875 "/></g></g></g><g fill="rgb(100%, 100%, 100%)" fill-opacity="1"><g transform="translate(1915.208379, 1656.075125)"><g><path d="M 3.453125 -139.074219 C 3.453125 -139.074219 9.253906 -136.3125 9.253906 -119.738281 L 9.253906 -18.367188 C 9.253906 -1.933594 3.453125 0 3.453125 0 C 18.367188 0 26.101562 -2.898438 26.101562 -16.296875 L 26.101562 -147.773438 Z M 100.816406 0 L 129.128906 0 C 129.128906 0 123.328125 -1.796875 123.328125 -18.230469 L 123.328125 -109.378906 C 123.328125 -154.402344 36.046875 -168.214844 27.070312 -106.480469 C 40.742188 -154.679688 106.480469 -154.265625 106.480469 -106.203125 C 106.480469 -18.367188 106.480469 -18.367188 106.480469 -18.367188 C 106.480469 -1.933594 100.816406 0 100.816406 0 Z M 100.816406 0 "/></g></g></g><g fill="rgb(100%, 100%, 100%)" fill-opacity="1"><g transform="translate(1146.26484, 1745.438749)"><g><path d="M 5.234375 0 L 5.234375 -41.75 L 19.40625 -41.75 C 22.738281 -41.75 25.648438 -41.195312 28.140625 -40.09375 C 30.628906 -39 32.703125 -37.507812 34.359375 -35.625 C 36.023438 -33.75 37.28125 -31.546875 38.125 -29.015625 C 38.96875 -26.484375 39.390625 -23.789062 39.390625 -20.9375 C 39.390625 -17.757812 38.921875 -14.882812 37.984375 -12.3125 C 37.046875 -9.75 35.703125 -7.554688 33.953125 -5.734375 C 32.210938 -3.910156 30.113281 -2.5 27.65625 -1.5 C 25.207031 -0.5 22.457031 0 19.40625 0 Z M 35.28125 -20.9375 C 35.28125 -23.4375 34.925781 -25.734375 34.21875 -27.828125 C 33.507812 -29.929688 32.476562 -31.75 31.125 -33.28125 C 29.78125 -34.8125 28.125 -35.992188 26.15625 -36.828125 C 24.195312 -37.671875 21.945312 -38.09375 19.40625 -38.09375 L 9.34375 -38.09375 L 9.34375 -3.640625 L 19.40625 -3.640625 C 21.988281 -3.640625 24.269531 -4.082031 26.25 -4.96875 C 28.226562 -5.851562 29.882812 -7.066406 31.21875 -8.609375 C 32.550781 -10.160156 33.5625 -11.984375 34.25 -14.078125 C 34.9375 -16.179688 35.28125 -18.46875 35.28125 -20.9375 Z M 35.28125 -20.9375 "/></g></g></g><g fill="rgb(100%, 100%, 100%)" fill-opacity="1"><g transform="translate(1197.423988, 1745.438749)"><g><path d="M 5.234375 0 L 5.234375 -41.75 L 22.875 -41.75 C 24.675781 -41.75 26.332031 -41.363281 27.84375 -40.59375 C 29.351562 -39.832031 30.65625 -38.832031 31.75 -37.59375 C 32.84375 -36.363281 33.691406 -34.960938 34.296875 -33.390625 C 34.910156 -31.828125 35.21875 -30.242188 35.21875 -28.640625 C 35.21875 -27.109375 34.988281 -25.644531 34.53125 -24.25 C 34.082031 -22.863281 33.457031 -21.609375 32.65625 -20.484375 C 31.851562 -19.367188 30.882812 -18.425781 29.75 -17.65625 C 28.613281 -16.894531 27.335938 -16.378906 25.921875 -16.109375 L 36.15625 0 L 31.515625 0 L 21.703125 -15.40625 L 9.34375 -15.40625 L 9.34375 0 Z M 9.34375 -19.046875 L 22.984375 -19.046875 C 24.203125 -19.046875 25.3125 -19.3125 26.3125 -19.84375 C 27.3125 -20.375 28.160156 -21.085938 28.859375 -21.984375 C 29.566406 -22.890625 30.117188 -23.910156 30.515625 -25.046875 C 30.910156 -26.179688 31.109375 -27.378906 31.109375 -28.640625 C 31.109375 -29.890625 30.878906 -31.09375 30.421875 -32.25 C 29.972656 -33.40625 29.363281 -34.414062 28.59375 -35.28125 C 27.832031 -36.144531 26.929688 -36.828125 25.890625 -37.328125 C 24.859375 -37.835938 23.773438 -38.09375 22.640625 -38.09375 L 9.34375 -38.09375 Z M 9.34375 -19.046875 "/></g></g></g><g fill="rgb(100%, 100%, 100%)" fill-opacity="1"><g transform="translate(1244.937409, 1745.438749)"><g><path d="M 33.28125 -3.640625 L 33.28125 0 L 5.234375 0 L 5.234375 -41.75 L 32.75 -41.75 L 32.75 -38.09375 L 9.34375 -38.09375 L 9.34375 -23.046875 L 29.75 -23.046875 L 29.75 -19.578125 L 9.34375 -19.578125 L 9.34375 -3.640625 Z M 33.28125 -3.640625 "/></g></g></g><g fill="rgb(100%, 100%, 100%)" fill-opacity="1"><g transform="translate(1289.863539, 1745.438749)"><g><path d="M 18.171875 -41.75 L 21.640625 -41.75 L 38.984375 0 L 34.625 0 L 29.21875 -13.046875 L 10.46875 -13.046875 L 5.109375 0 L 0.703125 0 Z M 28.28125 -16.28125 L 19.875 -36.921875 L 11.34375 -16.28125 Z M 28.28125 -16.28125 "/></g></g></g><g fill="rgb(100%, 100%, 100%)" fill-opacity="1"><g transform="translate(1338.729411, 1745.438749)"><g><path d="M 42.21875 0 L 42.21875 -34.28125 L 26.984375 -7.765625 L 24.578125 -7.765625 L 9.34375 -34.28125 L 9.34375 0 L 5.234375 0 L 5.234375 -41.75 L 9.46875 -41.75 L 25.75 -13.171875 L 42.15625 -41.75 L 46.328125 -41.75 L 46.328125 0 Z M 42.21875 0 "/></g></g></g><g fill="rgb(100%, 100%, 100%)" fill-opacity="1"><g transform="translate(1399.414489, 1745.438749)"><g><path d="M 29.640625 -33.921875 C 28.460938 -35.253906 26.890625 -36.332031 24.921875 -37.15625 C 22.960938 -37.976562 20.734375 -38.390625 18.234375 -38.390625 C 14.546875 -38.390625 11.859375 -37.691406 10.171875 -36.296875 C 8.484375 -34.910156 7.640625 -33.023438 7.640625 -30.640625 C 7.640625 -29.378906 7.863281 -28.347656 8.3125 -27.546875 C 8.769531 -26.742188 9.46875 -26.046875 10.40625 -25.453125 C 11.34375 -24.867188 12.546875 -24.359375 14.015625 -23.921875 C 15.492188 -23.492188 17.234375 -23.066406 19.234375 -22.640625 C 21.460938 -22.171875 23.46875 -21.640625 25.25 -21.046875 C 27.03125 -20.460938 28.546875 -19.726562 29.796875 -18.84375 C 31.054688 -17.957031 32.019531 -16.890625 32.6875 -15.640625 C 33.351562 -14.390625 33.6875 -12.820312 33.6875 -10.9375 C 33.6875 -9.019531 33.3125 -7.351562 32.5625 -5.9375 C 31.820312 -4.53125 30.785156 -3.351562 29.453125 -2.40625 C 28.117188 -1.46875 26.53125 -0.769531 24.6875 -0.3125 C 22.851562 0.132812 20.835938 0.359375 18.640625 0.359375 C 12.171875 0.359375 6.582031 -1.660156 1.875 -5.703125 L 3.9375 -9.0625 C 4.6875 -8.269531 5.578125 -7.519531 6.609375 -6.8125 C 7.648438 -6.113281 8.804688 -5.5 10.078125 -4.96875 C 11.359375 -4.4375 12.722656 -4.023438 14.171875 -3.734375 C 15.617188 -3.441406 17.144531 -3.296875 18.75 -3.296875 C 22.082031 -3.296875 24.679688 -3.890625 26.546875 -5.078125 C 28.410156 -6.273438 29.34375 -8.09375 29.34375 -10.53125 C 29.34375 -11.820312 29.078125 -12.90625 28.546875 -13.78125 C 28.015625 -14.664062 27.21875 -15.429688 26.15625 -16.078125 C 25.101562 -16.722656 23.789062 -17.28125 22.21875 -17.75 C 20.65625 -18.226562 18.832031 -18.703125 16.75 -19.171875 C 14.5625 -19.679688 12.644531 -20.207031 11 -20.75 C 9.351562 -21.300781 7.957031 -21.988281 6.8125 -22.8125 C 5.675781 -23.632812 4.820312 -24.625 4.25 -25.78125 C 3.6875 -26.9375 3.40625 -28.359375 3.40625 -30.046875 C 3.40625 -31.960938 3.765625 -33.675781 4.484375 -35.1875 C 5.210938 -36.695312 6.242188 -37.953125 7.578125 -38.953125 C 8.910156 -39.953125 10.476562 -40.71875 12.28125 -41.25 C 14.09375 -41.78125 16.09375 -42.046875 18.28125 -42.046875 C 21.0625 -42.046875 23.539062 -41.625 25.71875 -40.78125 C 27.894531 -39.9375 29.863281 -38.75 31.625 -37.21875 Z M 29.640625 -33.921875 "/></g></g></g><g fill="rgb(100%, 100%, 100%)" fill-opacity="1"><g transform="translate(439.320456, 1384.916167)"><g><path d="M 29.15625 42.609375 L 32.546875 28.125 L -4.546875 19.453125 L -3.609375 15.453125 L 33.484375 24.125 L 36.859375 9.640625 L 40.421875 10.484375 L 32.71875 43.453125 Z M 29.15625 42.609375 "/></g></g></g><g fill="rgb(100%, 100%, 100%)" fill-opacity="1"><g transform="translate(428.96948, 1431.995163)"><g><path d="M 38.625 41.3125 L -3 38.03125 L -2.6875 34 L 16.765625 35.53125 L 18.71875 10.84375 L -0.734375 9.3125 L -0.40625 5.21875 L 41.21875 8.5 L 40.890625 12.59375 L 22.359375 11.140625 L 20.40625 35.828125 L 38.9375 37.28125 Z M 38.625 41.3125 "/></g></g></g><g fill="rgb(100%, 100%, 100%)" fill-opacity="1"><g transform="translate(425.800328, 1487.595543)"><g><path d="M 6.015625 32.921875 L 2.390625 33.1875 L 0.375 5.21875 L 42.015625 2.21875 L 44 29.671875 L 40.359375 29.921875 L 38.671875 6.5625 L 23.65625 7.65625 L 25.125 28.015625 L 21.671875 28.265625 L 20.203125 7.90625 L 4.296875 9.046875 Z M 6.015625 32.921875 "/></g></g></g><g fill="rgb(100%, 100%, 100%)" fill-opacity="1"><g transform="translate(435.041763, 1560.610713)"><g><path d="M 20.828125 31.984375 C 19.316406 32.441406 17.84375 32.554688 16.40625 32.328125 C 14.96875 32.109375 13.640625 31.628906 12.421875 30.890625 C 11.203125 30.160156 10.132812 29.191406 9.21875 27.984375 C 8.300781 26.785156 7.613281 25.421875 7.15625 23.890625 L 1.5 5.015625 L 41.5 -6.96875 L 47.28125 12.296875 C 47.6875 13.679688 47.753906 15.023438 47.484375 16.328125 C 47.222656 17.640625 46.734375 18.832031 46.015625 19.90625 C 45.296875 20.988281 44.390625 21.925781 43.296875 22.71875 C 42.203125 23.507812 41.035156 24.09375 39.796875 24.46875 C 37.765625 25.070312 35.765625 25.117188 33.796875 24.609375 C 31.828125 24.097656 30.15625 23.066406 28.78125 21.515625 C 28.789062 24.003906 28.078125 26.1875 26.640625 28.0625 C 25.203125 29.945312 23.265625 31.253906 20.828125 31.984375 Z M 20.3125 27.84375 C 21.289062 27.550781 22.1875 27.097656 23 26.484375 C 23.820312 25.867188 24.484375 25.148438 24.984375 24.328125 C 25.492188 23.503906 25.84375 22.609375 26.03125 21.640625 C 26.21875 20.671875 26.164062 19.695312 25.875 18.71875 L 21.28125 3.390625 L 6.125 7.921875 L 10.59375 22.859375 C 10.894531 23.867188 11.382812 24.75 12.0625 25.5 C 12.738281 26.257812 13.523438 26.863281 14.421875 27.3125 C 15.316406 27.769531 16.273438 28.046875 17.296875 28.140625 C 18.328125 28.234375 19.332031 28.132812 20.3125 27.84375 Z M 39.234375 -2 L 24.484375 2.421875 L 28.59375 16.15625 C 28.882812 17.132812 29.363281 17.984375 30.03125 18.703125 C 30.695312 19.429688 31.460938 19.992188 32.328125 20.390625 C 33.191406 20.785156 34.109375 21.019531 35.078125 21.09375 C 36.054688 21.175781 37.035156 21.070312 38.015625 20.78125 C 39.035156 20.46875 39.945312 20.019531 40.75 19.4375 C 41.550781 18.851562 42.191406 18.171875 42.671875 17.390625 C 43.160156 16.609375 43.484375 15.757812 43.640625 14.84375 C 43.796875 13.9375 43.734375 13.015625 43.453125 12.078125 Z M 39.234375 -2 "/></g></g></g><g fill="rgb(100%, 100%, 100%)" fill-opacity="1"><g transform="translate(450.744213, 1609.417738)"><g><path d="M 2.203125 4.75 L 40.09375 -12.765625 L 41.8125 -9.03125 L 7.21875 6.953125 L 17.34375 28.828125 L 14.046875 30.359375 Z M 2.203125 4.75 "/></g></g></g><g fill="rgb(100%, 100%, 100%)" fill-opacity="1"><g transform="translate(470.79913, 1651.471417)"><g><path d="M 11.890625 18.5625 C 10.296875 16.144531 9.332031 13.597656 9 10.921875 C 8.675781 8.253906 8.863281 5.65625 9.5625 3.125 C 10.269531 0.601562 11.425781 -1.75 13.03125 -3.9375 C 14.644531 -6.125 16.5625 -7.953125 18.78125 -9.421875 C 21.101562 -10.953125 23.601562 -12 26.28125 -12.5625 C 28.96875 -13.132812 31.613281 -13.222656 34.21875 -12.828125 C 36.820312 -12.441406 39.265625 -11.566406 41.546875 -10.203125 C 43.835938 -8.847656 45.75 -7.007812 47.28125 -4.6875 C 48.875 -2.269531 49.816406 0.285156 50.109375 2.984375 C 50.398438 5.679688 50.179688 8.289062 49.453125 10.8125 C 48.722656 13.34375 47.554688 15.691406 45.953125 17.859375 C 44.359375 20.035156 42.46875 21.847656 40.28125 23.296875 C 37.957031 24.828125 35.457031 25.875 32.78125 26.4375 C 30.113281 27.007812 27.484375 27.097656 24.890625 26.703125 C 22.304688 26.316406 19.875 25.441406 17.59375 24.078125 C 15.320312 22.722656 13.421875 20.882812 11.890625 18.5625 Z M 21.046875 -6 C 19.148438 -4.75 17.53125 -3.234375 16.1875 -1.453125 C 14.84375 0.316406 13.867188 2.222656 13.265625 4.265625 C 12.671875 6.304688 12.488281 8.378906 12.71875 10.484375 C 12.945312 12.585938 13.703125 14.601562 14.984375 16.53125 C 16.273438 18.5 17.875 20.003906 19.78125 21.046875 C 21.695312 22.085938 23.707031 22.710938 25.8125 22.921875 C 27.914062 23.128906 30.035156 22.960938 32.171875 22.421875 C 34.304688 21.890625 36.269531 21.03125 38.0625 19.84375 C 39.957031 18.59375 41.570312 17.066406 42.90625 15.265625 C 44.25 13.472656 45.210938 11.5625 45.796875 9.53125 C 46.378906 7.5 46.554688 5.429688 46.328125 3.328125 C 46.097656 1.234375 45.359375 -0.757812 44.109375 -2.65625 C 42.804688 -4.625 41.207031 -6.132812 39.3125 -7.1875 C 37.425781 -8.238281 35.425781 -8.867188 33.3125 -9.078125 C 31.207031 -9.285156 29.085938 -9.117188 26.953125 -8.578125 C 24.816406 -8.046875 22.847656 -7.1875 21.046875 -6 Z M 21.046875 -6 "/></g></g></g><g fill="rgb(100%, 100%, 100%)" fill-opacity="1"><g transform="translate(502.922557, 1698.204286)"><g><path d="M 28.484375 21.875 C 22.710938 21.925781 18.113281 20.09375 14.6875 16.375 C 12.769531 14.289062 11.453125 11.96875 10.734375 9.40625 C 10.023438 6.84375 9.8125 4.238281 10.09375 1.59375 C 10.382812 -1.039062 11.128906 -3.578125 12.328125 -6.015625 C 13.523438 -8.453125 15.101562 -10.570312 17.0625 -12.375 C 19.113281 -14.257812 21.398438 -15.710938 23.921875 -16.734375 C 26.441406 -17.753906 29 -18.285156 31.59375 -18.328125 C 34.195312 -18.367188 36.71875 -17.921875 39.15625 -16.984375 C 41.601562 -16.046875 43.769531 -14.550781 45.65625 -12.5 C 47.039062 -11 48.140625 -9.472656 48.953125 -7.921875 C 49.765625 -6.378906 50.316406 -4.851562 50.609375 -3.34375 C 50.910156 -1.832031 50.972656 -0.347656 50.796875 1.109375 C 50.617188 2.566406 50.269531 4 49.75 5.40625 L 46.046875 4.5 C 47.015625 1.726562 47.203125 -0.867188 46.609375 -3.296875 C 46.015625 -5.722656 44.773438 -7.960938 42.890625 -10.015625 C 41.328125 -11.710938 39.550781 -12.914062 37.5625 -13.625 C 35.570312 -14.332031 33.535156 -14.617188 31.453125 -14.484375 C 29.367188 -14.347656 27.316406 -13.828125 25.296875 -12.921875 C 23.273438 -12.015625 21.441406 -10.804688 19.796875 -9.296875 C 18.066406 -7.703125 16.695312 -5.890625 15.6875 -3.859375 C 14.6875 -1.835938 14.078125 0.226562 13.859375 2.34375 C 13.648438 4.457031 13.84375 6.53125 14.4375 8.5625 C 15.03125 10.59375 16.082031 12.429688 17.59375 14.078125 C 19.21875 15.835938 21.175781 17.132812 23.46875 17.96875 C 25.769531 18.8125 28.492188 19.144531 31.640625 18.96875 L 36.734375 14.265625 L 30.4375 7.453125 L 32.765625 5.296875 L 41.40625 14.671875 L 26.328125 28.578125 L 23.984375 26.015625 Z M 28.484375 21.875 "/></g></g></g><g fill="rgb(100%, 100%, 100%)" fill-opacity="1"><g transform="translate(560.424401, 1753.931902)"><g><path d="M 27.765625 18.890625 L 26.609375 11.984375 C 24.265625 12.523438 21.925781 12.601562 19.59375 12.21875 C 17.269531 11.84375 15.066406 10.953125 12.984375 9.546875 C 11.460938 8.503906 10.179688 7.300781 9.140625 5.9375 C 8.109375 4.570312 7.378906 3.132812 6.953125 1.625 C 6.523438 0.125 6.410156 -1.394531 6.609375 -2.9375 C 6.804688 -4.476562 7.378906 -5.945312 8.328125 -7.34375 C 9.117188 -8.5 10.039062 -9.429688 11.09375 -10.140625 C 12.144531 -10.859375 13.289062 -11.398438 14.53125 -11.765625 C 15.769531 -12.128906 17.066406 -12.367188 18.421875 -12.484375 C 19.785156 -12.597656 21.179688 -12.648438 22.609375 -12.640625 C 22.367188 -14.171875 22.203125 -15.515625 22.109375 -16.671875 C 22.015625 -17.828125 21.992188 -18.847656 22.046875 -19.734375 C 22.109375 -20.617188 22.253906 -21.410156 22.484375 -22.109375 C 22.722656 -22.804688 23.054688 -23.460938 23.484375 -24.078125 C 24.203125 -25.148438 25.09375 -25.992188 26.15625 -26.609375 C 27.226562 -27.234375 28.382812 -27.617188 29.625 -27.765625 C 30.875 -27.910156 32.15625 -27.820312 33.46875 -27.5 C 34.789062 -27.175781 36.066406 -26.597656 37.296875 -25.765625 C 38.429688 -24.992188 39.375 -24.113281 40.125 -23.125 C 40.875 -22.132812 41.410156 -21.09375 41.734375 -20 C 42.054688 -18.90625 42.140625 -17.789062 41.984375 -16.65625 C 41.835938 -15.53125 41.421875 -14.46875 40.734375 -13.46875 C 40.054688 -12.457031 39.234375 -11.675781 38.265625 -11.125 C 37.296875 -10.570312 36.210938 -10.15625 35.015625 -9.875 C 33.828125 -9.59375 32.546875 -9.421875 31.171875 -9.359375 C 29.804688 -9.304688 28.378906 -9.285156 26.890625 -9.296875 L 29.671875 7.390625 C 31.160156 6.597656 32.582031 5.609375 33.9375 4.421875 C 35.289062 3.234375 36.507812 1.84375 37.59375 0.25 L 40.40625 2.15625 C 39.007812 4.15625 37.453125 5.875 35.734375 7.3125 C 34.015625 8.757812 32.179688 9.90625 30.234375 10.75 L 32.125 21.859375 Z M 15.140625 7.09375 C 16.796875 8.21875 18.554688 8.90625 20.421875 9.15625 C 22.296875 9.414062 24.1875 9.289062 26.09375 8.78125 L 23.140625 -9.359375 C 20.617188 -9.328125 18.335938 -9.039062 16.296875 -8.5 C 14.265625 -7.957031 12.65625 -6.8125 11.46875 -5.0625 C 10.738281 -4 10.328125 -2.894531 10.234375 -1.75 C 10.148438 -0.601562 10.300781 0.515625 10.6875 1.609375 C 11.082031 2.710938 11.671875 3.734375 12.453125 4.671875 C 13.242188 5.609375 14.140625 6.414062 15.140625 7.09375 Z M 26.609375 -22.078125 C 26.335938 -21.691406 26.128906 -21.265625 25.984375 -20.796875 C 25.835938 -20.328125 25.753906 -19.734375 25.734375 -19.015625 C 25.710938 -18.296875 25.742188 -17.421875 25.828125 -16.390625 C 25.910156 -15.359375 26.082031 -14.09375 26.34375 -12.59375 C 29.050781 -12.539062 31.367188 -12.65625 33.296875 -12.9375 C 35.222656 -13.21875 36.660156 -14.054688 37.609375 -15.453125 C 38.472656 -16.722656 38.707031 -18.082031 38.3125 -19.53125 C 37.914062 -20.976562 36.988281 -22.195312 35.53125 -23.1875 C 34.71875 -23.738281 33.882812 -24.113281 33.03125 -24.3125 C 32.1875 -24.507812 31.359375 -24.554688 30.546875 -24.453125 C 29.734375 -24.347656 28.988281 -24.09375 28.3125 -23.6875 C 27.632812 -23.289062 27.066406 -22.753906 26.609375 -22.078125 Z M 26.609375 -22.078125 "/></g></g></g><g fill="rgb(100%, 100%, 100%)" fill-opacity="1"><g transform="translate(626.428961, 1793.609621)"><g><path d="M 4.859375 1.921875 L 20.234375 -36.890625 L 36.3125 -30.53125 C 37.988281 -29.863281 39.382812 -28.894531 40.5 -27.625 C 41.613281 -26.363281 42.453125 -24.953125 43.015625 -23.390625 C 43.585938 -21.835938 43.875 -20.21875 43.875 -18.53125 C 43.882812 -16.84375 43.597656 -15.253906 43.015625 -13.765625 C 42.378906 -12.160156 41.492188 -10.726562 40.359375 -9.46875 C 39.222656 -8.207031 37.941406 -7.207031 36.515625 -6.46875 C 35.085938 -5.738281 33.550781 -5.296875 31.90625 -5.140625 C 30.269531 -4.984375 28.613281 -5.238281 26.9375 -5.90625 L 14.359375 -10.890625 L 8.6875 3.4375 Z M 15.703125 -14.265625 L 28.125 -9.34375 C 29.25 -8.894531 30.367188 -8.734375 31.484375 -8.859375 C 32.609375 -8.992188 33.660156 -9.335938 34.640625 -9.890625 C 35.628906 -10.453125 36.519531 -11.195312 37.3125 -12.125 C 38.101562 -13.0625 38.734375 -14.113281 39.203125 -15.28125 C 39.671875 -16.488281 39.90625 -17.710938 39.90625 -18.953125 C 39.914062 -20.191406 39.722656 -21.347656 39.328125 -22.421875 C 38.941406 -23.503906 38.351562 -24.460938 37.5625 -25.296875 C 36.769531 -26.140625 35.847656 -26.773438 34.796875 -27.203125 L 22.703125 -31.984375 Z M 15.703125 -14.265625 "/></g></g></g><g fill="rgb(100%, 100%, 100%)" fill-opacity="1"><g transform="translate(672.18711, 1811.018383)"><g><path d="M 21.4375 5.1875 C 18.613281 4.539062 16.15625 3.363281 14.0625 1.65625 C 11.976562 -0.0390625 10.316406 -2.046875 9.078125 -4.359375 C 7.835938 -6.671875 7.039062 -9.171875 6.6875 -11.859375 C 6.332031 -14.554688 6.445312 -17.207031 7.03125 -19.8125 C 7.65625 -22.519531 8.734375 -25.003906 10.265625 -27.265625 C 11.804688 -29.523438 13.65625 -31.414062 15.8125 -32.9375 C 17.976562 -34.457031 20.351562 -35.515625 22.9375 -36.109375 C 25.519531 -36.710938 28.171875 -36.707031 30.890625 -36.09375 C 33.710938 -35.445312 36.160156 -34.253906 38.234375 -32.515625 C 40.304688 -30.773438 41.953125 -28.738281 43.171875 -26.40625 C 44.398438 -24.082031 45.191406 -21.582031 45.546875 -18.90625 C 45.898438 -16.238281 45.785156 -13.625 45.203125 -11.0625 C 44.585938 -8.34375 43.507812 -5.851562 41.96875 -3.59375 C 40.425781 -1.34375 38.585938 0.535156 36.453125 2.046875 C 34.328125 3.554688 31.96875 4.609375 29.375 5.203125 C 26.789062 5.804688 24.144531 5.800781 21.4375 5.1875 Z M 11.046875 -18.90625 C 10.546875 -16.6875 10.425781 -14.46875 10.6875 -12.25 C 10.945312 -10.039062 11.5625 -7.988281 12.53125 -6.09375 C 13.507812 -4.207031 14.804688 -2.585938 16.421875 -1.234375 C 18.046875 0.117188 19.988281 1.050781 22.25 1.5625 C 24.539062 2.082031 26.738281 2.054688 28.84375 1.484375 C 30.945312 0.921875 32.832031 -0.0078125 34.5 -1.3125 C 36.164062 -2.625 37.578125 -4.210938 38.734375 -6.078125 C 39.898438 -7.941406 40.722656 -9.925781 41.203125 -12.03125 C 41.710938 -14.238281 41.828125 -16.453125 41.546875 -18.671875 C 41.265625 -20.890625 40.628906 -22.929688 39.640625 -24.796875 C 38.660156 -26.671875 37.359375 -28.285156 35.734375 -29.640625 C 34.109375 -31.003906 32.191406 -31.9375 29.984375 -32.4375 C 27.679688 -32.957031 25.488281 -32.941406 23.40625 -32.390625 C 21.320312 -31.847656 19.445312 -30.921875 17.78125 -29.609375 C 16.113281 -28.304688 14.691406 -26.722656 13.515625 -24.859375 C 12.347656 -22.992188 11.523438 -21.007812 11.046875 -18.90625 Z M 11.046875 -18.90625 "/></g></g></g><g fill="rgb(100%, 100%, 100%)" fill-opacity="1"><g transform="translate(727.714771, 1822.521463)"><g><path d="M 5.21875 0.328125 L 7.796875 -41.34375 L 21.953125 -40.46875 C 25.273438 -40.257812 28.144531 -39.53125 30.5625 -38.28125 C 32.976562 -37.03125 34.957031 -35.414062 36.5 -33.4375 C 38.039062 -31.457031 39.15625 -29.175781 39.84375 -26.59375 C 40.53125 -24.019531 40.785156 -21.304688 40.609375 -18.453125 C 40.410156 -15.285156 39.765625 -12.445312 38.671875 -9.9375 C 37.578125 -7.4375 36.101562 -5.332031 34.25 -3.625 C 32.394531 -1.914062 30.210938 -0.640625 27.703125 0.203125 C 25.191406 1.054688 22.414062 1.390625 19.375 1.203125 Z M 36.515625 -18.703125 C 36.671875 -21.203125 36.457031 -23.519531 35.875 -25.65625 C 35.300781 -27.800781 34.382812 -29.679688 33.125 -31.296875 C 31.875 -32.910156 30.296875 -34.191406 28.390625 -35.140625 C 26.484375 -36.097656 24.265625 -36.65625 21.734375 -36.8125 L 11.6875 -37.4375 L 9.546875 -3.0625 L 19.59375 -2.4375 C 22.164062 -2.28125 24.46875 -2.578125 26.5 -3.328125 C 28.53125 -4.085938 30.257812 -5.195312 31.6875 -6.65625 C 33.113281 -8.125 34.234375 -9.882812 35.046875 -11.9375 C 35.867188 -13.988281 36.359375 -16.242188 36.515625 -18.703125 Z M 36.515625 -18.703125 "/></g></g></g><g fill="rgb(100%, 100%, 100%)" fill-opacity="1"><g transform="translate(782.125338, 1824.858834)"><g><path d="M 0.46875 -21.3125 C 0.226562 -23.8125 0.429688 -26.335938 1.078125 -28.890625 C 1.734375 -31.453125 2.804688 -33.785156 4.296875 -35.890625 C 5.785156 -38.003906 7.703125 -39.789062 10.046875 -41.25 C 12.390625 -42.707031 15.125 -43.585938 18.25 -43.890625 C 21.957031 -44.234375 25.207031 -43.691406 28 -42.265625 C 30.800781 -40.835938 32.945312 -38.835938 34.4375 -36.265625 L 31.40625 -33.96875 C 30.625 -35.269531 29.707031 -36.34375 28.65625 -37.1875 C 27.613281 -38.03125 26.515625 -38.691406 25.359375 -39.171875 C 24.210938 -39.660156 23.039062 -39.972656 21.84375 -40.109375 C 20.644531 -40.253906 19.484375 -40.273438 18.359375 -40.171875 C 15.859375 -39.941406 13.703125 -39.226562 11.890625 -38.03125 C 10.078125 -36.832031 8.59375 -35.347656 7.4375 -33.578125 C 6.28125 -31.816406 5.460938 -29.878906 4.984375 -27.765625 C 4.515625 -25.660156 4.378906 -23.554688 4.578125 -21.453125 C 4.796875 -19.148438 5.40625 -16.984375 6.40625 -14.953125 C 7.40625 -12.921875 8.675781 -11.160156 10.21875 -9.671875 C 11.757812 -8.179688 13.519531 -7.046875 15.5 -6.265625 C 17.488281 -5.484375 19.59375 -5.195312 21.8125 -5.40625 C 22.976562 -5.519531 24.160156 -5.78125 25.359375 -6.1875 C 26.566406 -6.601562 27.710938 -7.1875 28.796875 -7.9375 C 29.890625 -8.6875 30.878906 -9.585938 31.765625 -10.640625 C 32.660156 -11.691406 33.375 -12.929688 33.90625 -14.359375 L 37.46875 -12.90625 C 36.945312 -11.289062 36.132812 -9.828125 35.03125 -8.515625 C 33.9375 -7.210938 32.6875 -6.082031 31.28125 -5.125 C 29.882812 -4.164062 28.375 -3.390625 26.75 -2.796875 C 25.132812 -2.210938 23.523438 -1.847656 21.921875 -1.703125 C 19.078125 -1.429688 16.40625 -1.804688 13.90625 -2.828125 C 11.414062 -3.859375 9.210938 -5.296875 7.296875 -7.140625 C 5.378906 -8.992188 3.820312 -11.15625 2.625 -13.625 C 1.4375 -16.09375 0.71875 -18.65625 0.46875 -21.3125 Z M 0.46875 -21.3125 "/></g></g></g><g fill="rgb(100%, 100%, 100%)" fill-opacity="1"><g transform="translate(834.473945, 1818.964808)"><g><path d="M 7.453125 -44.90625 L 10.8125 -45.75 L 37.8125 -9.5 L 33.578125 -8.4375 L 25.171875 -19.78125 L 6.984375 -15.203125 L 4.953125 -1.25 L 0.6875 -0.171875 Z M 23.453125 -22.6875 L 10.28125 -40.65625 L 7.03125 -18.5625 Z M 23.453125 -22.6875 "/></g></g></g><g fill="rgb(100%, 100%, 100%)" fill-opacity="1"><g transform="translate(884.574835, 1805.317502)"><g><path d="M 14.46875 -42.65625 C 12.863281 -43.4375 11 -43.832031 8.875 -43.84375 C 6.75 -43.851562 4.53125 -43.382812 2.21875 -42.4375 C -1.1875 -41.03125 -3.40625 -39.363281 -4.4375 -37.4375 C -5.46875 -35.507812 -5.53125 -33.441406 -4.625 -31.234375 C -4.144531 -30.066406 -3.539062 -29.203125 -2.8125 -28.640625 C -2.09375 -28.078125 -1.1875 -27.695312 -0.09375 -27.5 C 1 -27.3125 2.304688 -27.296875 3.828125 -27.453125 C 5.359375 -27.617188 7.132812 -27.890625 9.15625 -28.265625 C 11.394531 -28.679688 13.445312 -28.953125 15.3125 -29.078125 C 17.1875 -29.210938 18.875 -29.109375 20.375 -28.765625 C 21.875 -28.429688 23.164062 -27.8125 24.25 -26.90625 C 25.34375 -26.007812 26.25 -24.691406 26.96875 -22.953125 C 27.695312 -21.179688 27.988281 -19.5 27.84375 -17.90625 C 27.695312 -16.320312 27.1875 -14.835938 26.3125 -13.453125 C 25.4375 -12.078125 24.234375 -10.828125 22.703125 -9.703125 C 21.179688 -8.585938 19.40625 -7.613281 17.375 -6.78125 C 11.394531 -4.3125 5.457031 -4.046875 -0.4375 -5.984375 L 0.1875 -9.875 C 1.1875 -9.4375 2.296875 -9.085938 3.515625 -8.828125 C 4.734375 -8.566406 6.035156 -8.4375 7.421875 -8.4375 C 8.804688 -8.4375 10.222656 -8.578125 11.671875 -8.859375 C 13.128906 -9.140625 14.597656 -9.585938 16.078125 -10.203125 C 19.160156 -11.472656 21.332031 -13.015625 22.59375 -14.828125 C 23.863281 -16.640625 24.035156 -18.671875 23.109375 -20.921875 C 22.617188 -22.117188 21.957031 -23.019531 21.125 -23.625 C 20.300781 -24.238281 19.273438 -24.644531 18.046875 -24.84375 C 16.828125 -25.039062 15.398438 -25.054688 13.765625 -24.890625 C 12.140625 -24.734375 10.273438 -24.472656 8.171875 -24.109375 C 5.953125 -23.753906 3.976562 -23.515625 2.25 -23.390625 C 0.519531 -23.265625 -1.023438 -23.363281 -2.390625 -23.6875 C -3.765625 -24.019531 -4.929688 -24.609375 -5.890625 -25.453125 C -6.847656 -26.304688 -7.648438 -27.515625 -8.296875 -29.078125 C -9.023438 -30.847656 -9.34375 -32.566406 -9.25 -34.234375 C -9.164062 -35.910156 -8.695312 -37.460938 -7.84375 -38.890625 C -6.988281 -40.328125 -5.828125 -41.632812 -4.359375 -42.8125 C -2.898438 -44 -1.15625 -45.007812 0.875 -45.84375 C 3.4375 -46.90625 5.882812 -47.457031 8.21875 -47.5 C 10.5625 -47.550781 12.835938 -47.207031 15.046875 -46.46875 Z M 14.46875 -42.65625 "/></g></g></g><g fill="rgb(100%, 100%, 100%)" fill-opacity="1"><g transform="translate(928.391092, 1786.344117)"><g><path d="M 10.8125 -50.484375 L -2.03125 -42.96875 L 17.234375 -10.109375 L 13.6875 -8.03125 L -5.578125 -40.890625 L -18.40625 -33.359375 L -20.25 -36.515625 L 8.96875 -53.640625 Z M 10.8125 -50.484375 "/></g></g></g></svg>